<svg id="Слой_1" data-name="Слой 1" xmlns="http://www.w3.org/2000/svg" viewBox="0 0 315.32 136"><title>logo_sm</title><path d="M131.25,238.77a89.12,89.12,0,0,1,34-21.66,134.61,134.61,0,0,1,26.26-6.47c2.78-.43,5.59-0.68,8.39-1a4.79,4.79,0,0,1,4.81,3.13,119.19,119.19,0,0,1,6.9,26.14,101.44,101.44,0,0,1,.7,23.78c-1.55,16.51-6.48,31.88-16.07,45.55a77.5,77.5,0,0,1-24.92,22.5c-12.26,7.14-25.55,11.36-39.52,13.58-3.63.58-7.27,0.92-10.92,1.26a5.85,5.85,0,0,1-5.08-2c-1.32-1.91-1.81-4.16-2.57-6.29a141.88,141.88,0,0,1-4.37-15.83c-0.62-3.81-1.39-7.61-1.63-11.47a112.26,112.26,0,0,1-.36-13.87,108.37,108.37,0,0,1,1.86-15.16A86,86,0,0,1,118.09,256c1.06-1.89,2.22-3.71,3.38-5.54a123,123,0,0,1,7.7-9.9A6,6,0,0,1,131.25,238.77Z" transform="translate(-46 -209.67)" style="fill:#1aa2b7"/><path d="M109.14,321.71c0.77,3,1.48,6,2.31,8.91a92,92,0,0,0,4.36,12.71,0.76,0.76,0,0,1,0,.33c-2.54-1.59-5.1-3.16-7.63-4.76Q88.56,326.48,69,314a49.18,49.18,0,0,1-16.72-17.44,10.84,10.84,0,0,0-.64-1.21A47.38,47.38,0,0,1,46,274.65a47.86,47.86,0,0,1,4.28-21.84,48.94,48.94,0,0,1,16.23-19.7c0.41-.29.85-0.53,1.27-0.8a4.15,4.15,0,0,0,1.14-.73,47.68,47.68,0,0,1,22-7.16,49,49,0,0,1,20.56,2.92,56,56,0,0,1,11.8,6.29c2.49,1.68,5,3.34,7.51,5a1.49,1.49,0,0,0,.44.12,106.14,106.14,0,0,0-9.47,11.65,2.25,2.25,0,0,1-1.55-.67c-3.35-2.08-6.57-4.36-10-6.24a31.82,31.82,0,0,0-17.64-3.9,32.68,32.68,0,0,0-20.82,9,32.19,32.19,0,0,0-10,18.53,33,33,0,0,0,3.44,21.22C68.31,294.28,73,298.55,78.57,302q11.52,7.25,23,14.59l6.55,4.17A2.82,2.82,0,0,1,109.14,321.71Z" transform="translate(-46 -209.67)" style="fill:#fe0408"/><path d="M69,231.58a1.22,1.22,0,0,1-1.14.73A1.83,1.83,0,0,1,69,231.58Z" transform="translate(-46 -209.67)" style="fill:#fc5b40"/><path d="M51.62,295.39a1.36,1.36,0,0,1,.64,1.21A1.64,1.64,0,0,1,51.62,295.39Z" transform="translate(-46 -209.67)" style="fill:#fb6045"/><path d="M109.14,321.71c-3.76-2.36-7.53-4.71-11.28-7.08-6.75-4.28-13.48-8.6-20.25-12.85-6.18-3.87-11.11-8.89-13.83-15.7-5.19-13-3.39-25,5.74-35.58a33.3,33.3,0,0,1,40.16-7.6c4.21,2.2,8.1,5,12.1,7.52-1.68,2.86-3.48,5.65-5,8.61a89,89,0,0,0-9.6,36.89,109.31,109.31,0,0,0,1.88,24.88A7.64,7.64,0,0,1,109.14,321.71Z" transform="translate(-46 -209.67)" style="fill:#fff"/><path d="M149.17,304l6.33-10q5.66-8.9,11.3-17.8a2.2,2.2,0,0,1,1.53-1.06q16.34-3.62,32.67-7.28c1.2-.27,1.24-0.22,1,1a79.29,79.29,0,0,1-7.85,23.63,3.63,3.63,0,0,1-2.71,2.14c-13.88,3-27.74,6.15-41.61,9.24C149.73,303.9,149.58,303.91,149.17,304Z" transform="translate(-46 -209.67)" style="fill:#fff"/><path d="M140.75,298.41q-0.95-4.22-1.89-8.43-3.8-17.07-7.61-34.13a2.34,2.34,0,0,1,.43-2.13,78.78,78.78,0,0,1,18.19-17.52c0.84-.59,1-0.35,1.2.51q3.64,16.51,7.34,33a2.11,2.11,0,0,1-.23,1.75q-8.35,13.08-16.66,26.18A1.11,1.11,0,0,1,140.75,298.41Z" transform="translate(-46 -209.67)" style="fill:#fff"/><path d="M123.8,267.84q0.87,3.88,1.74,7.77,3.76,16.91,7.54,33.81a2.46,2.46,0,0,1-.35,2.05q-5.47,8.54-10.89,17.11l-0.54.84c-5.92-21-6.35-41.42,2.18-61.57h0.31Z" transform="translate(-46 -209.67)" style="fill:#fff"/><path d="M184.67,306.33c-14.8,16.48-33.48,24.86-54.87,28.37a4.76,4.76,0,0,1,.9-1.7c3.45-5.45,6.92-10.88,10.36-16.33a2.1,2.1,0,0,1,1.41-1.06q20.74-4.6,41.48-9.23A7,7,0,0,1,184.67,306.33Z" transform="translate(-46 -209.67)" style="fill:#fff"/><path d="M190.4,220.73L166.1,259c-0.47-2.05-.88-3.83-1.28-5.61-1.62-7.23-3.21-14.47-4.86-21.69a1.4,1.4,0,0,1,.9-1.92,103.81,103.81,0,0,1,28.73-8.95C189.78,220.77,190,220.76,190.4,220.73Z" transform="translate(-46 -209.67)" style="fill:#fff"/><path d="M198.78,226.18a82.25,82.25,0,0,1,2.32,9.28,96.9,96.9,0,0,1,2,20.69A1.23,1.23,0,0,1,202,257.6c-8.71,1.9-17.41,3.86-26.11,5.78-0.23,0-.48.35-0.73,0.05s0.13-.47.24-0.65q11.35-17.9,22.72-35.78A1.59,1.59,0,0,1,198.78,226.18Z" transform="translate(-46 -209.67)" style="fill:#fff"/><path d="M268.42,258.62v31H255.21V320H225.62V253q0-11.31,3.88-19.3A40.38,40.38,0,0,1,244.41,217a37.94,37.94,0,0,1,20.84-6.45l3.16,0.08v31c-0.69-.05-1.19-0.08-1.5-0.08q-5.62,0-8.66,3.72t-3,10.6v2.69h13.21Z" transform="translate(-46 -209.67)" style="fill:#fe0007"/><path d="M329.8,283.69l29.35-1.11q-1.27,17.09-12.74,28.08a38.85,38.85,0,0,1-27.92,11,39.76,39.76,0,0,1-29.39-12.1q-12-12.1-12-29.66a38.55,38.55,0,0,1,12.1-28.56,41,41,0,0,1,69.21,21.28l-30,1.11a11.87,11.87,0,0,0-9.81-5.06,11.1,11.1,0,0,0-8.31,3.32,11.51,11.51,0,0,0-3.24,8.38,11.78,11.78,0,0,0,3.44,8.62,11.57,11.57,0,0,0,8.58,3.48Q326.63,292.47,329.8,283.69Z" transform="translate(-46 -209.67)" style="fill:#fe0007"/><path d="M222.23,334.63h2.53V336a4.07,4.07,0,0,1,3.23-1.65,3.48,3.48,0,0,1,1.73.41,3.15,3.15,0,0,1,1.2,1.24,4.78,4.78,0,0,1,1.47-1.24,3.62,3.62,0,0,1,1.69-.41,3.76,3.76,0,0,1,1.93.46,2.84,2.84,0,0,1,1.18,1.36,5.91,5.91,0,0,1,.28,2.15V345h-2.74v-5.93a4.41,4.41,0,0,0-.28-2,1.3,1.3,0,0,0-1.17-.59,1.87,1.87,0,0,0-1.08.35,2,2,0,0,0-.73,1,7.41,7.41,0,0,0-.22,2.14v5H228.5v-5.68a7.89,7.89,0,0,0-.15-2,1.25,1.25,0,0,0-.45-0.65,1.43,1.43,0,0,0-.83-0.21,2,2,0,0,0-1.14.34,1.87,1.87,0,0,0-.73,1A7.33,7.33,0,0,0,225,340v5h-2.74V334.63Z" transform="translate(-46 -209.67)" style="fill:#181515"/><path d="M246.22,341.7l2.73,0.46a4.49,4.49,0,0,1-1.67,2.29,4.89,4.89,0,0,1-2.85.79,4.64,4.64,0,0,1-4-1.77,5.94,5.94,0,0,1-1-3.57,5.73,5.73,0,0,1,1.35-4,4.44,4.44,0,0,1,3.41-1.46,4.6,4.6,0,0,1,3.65,1.53,6.76,6.76,0,0,1,1.28,4.68h-6.87a2.78,2.78,0,0,0,.66,1.9,2.08,2.08,0,0,0,1.58.68,1.68,1.68,0,0,0,1.08-.35A2.17,2.17,0,0,0,246.22,341.7Zm0.16-2.77a2.64,2.64,0,0,0-.62-1.81,2,2,0,0,0-2.91,0,2.53,2.53,0,0,0-.58,1.78h4.1Z" transform="translate(-46 -209.67)" style="fill:#181515"/><path d="M260.85,345H258.3v-1.52a4.12,4.12,0,0,1-1.5,1.32,3.84,3.84,0,0,1-1.74.43,4,4,0,0,1-3.06-1.44,5.86,5.86,0,0,1-1.27-4,5.79,5.79,0,0,1,1.24-4,4,4,0,0,1,3.13-1.37,3.88,3.88,0,0,1,3,1.45v-5.16h2.74V345Zm-7.32-5.41A4.75,4.75,0,0,0,254,342a2.07,2.07,0,0,0,1.86,1.07,2,2,0,0,0,1.61-.81,3.72,3.72,0,0,0,.66-2.41,4.07,4.07,0,0,0-.64-2.57,2,2,0,0,0-1.65-.79,2.06,2.06,0,0,0-1.64.78A3.51,3.51,0,0,0,253.53,339.59Z" transform="translate(-46 -209.67)" style="fill:#181515"/><path d="M263.56,333.22v-2.54h2.74v2.54h-2.74Zm0,11.78V334.63h2.74V345h-2.74Z" transform="translate(-46 -209.67)" style="fill:#181515"/><path d="M278.16,337.7l-2.71.49a2,2,0,0,0-.62-1.22,1.87,1.87,0,0,0-1.25-.41,2.05,2.05,0,0,0-1.64.71,3.63,3.63,0,0,0-.61,2.37,4.2,4.2,0,0,0,.62,2.61,2,2,0,0,0,1.67.76,1.85,1.85,0,0,0,1.28-.44,2.67,2.67,0,0,0,.7-1.53l2.7,0.46a4.78,4.78,0,0,1-1.61,2.8,5,5,0,0,1-3.19.95,4.75,4.75,0,0,1-3.63-1.44,6.54,6.54,0,0,1,0-8,4.82,4.82,0,0,1,3.67-1.43,5,5,0,0,1,3,.82A4.52,4.52,0,0,1,278.16,337.7Z" transform="translate(-46 -209.67)" style="fill:#181515"/><path d="M282.29,337.79l-2.49-.45a3.88,3.88,0,0,1,1.45-2.23,5.29,5.29,0,0,1,3-.72,6.56,6.56,0,0,1,2.73.43,2.73,2.73,0,0,1,1.26,1.1,5.66,5.66,0,0,1,.37,2.46l0,3.2a11.12,11.12,0,0,0,.13,2,5.9,5.9,0,0,0,.49,1.39h-2.71c-0.07-.18-0.16-0.45-0.26-0.81q-0.07-.24-0.1-0.32a4.94,4.94,0,0,1-1.5,1,4.31,4.31,0,0,1-1.71.34,3.54,3.54,0,0,1-2.52-.87,2.89,2.89,0,0,1-.92-2.2,3,3,0,0,1,.42-1.57,2.74,2.74,0,0,1,1.18-1.05,9.21,9.21,0,0,1,2.18-.64,15,15,0,0,0,2.67-.67V338a1.42,1.42,0,0,0-.39-1.13,2.34,2.34,0,0,0-1.47-.34,2,2,0,0,0-1.14.29A2,2,0,0,0,282.29,337.79ZM286,340q-0.53.18-1.67,0.42a5,5,0,0,0-1.49.48,1.14,1.14,0,0,0-.54,1,1.35,1.35,0,0,0,.43,1,1.5,1.5,0,0,0,1.09.42,2.38,2.38,0,0,0,1.42-.49,1.72,1.72,0,0,0,.65-0.91,5.41,5.41,0,0,0,.11-1.34V340Z" transform="translate(-46 -209.67)" style="fill:#181515"/><path d="M291.36,345V330.68h2.74V345h-2.74Z" transform="translate(-46 -209.67)" style="fill:#181515"/><path d="M311.52,337.7l-2.71.49a2,2,0,0,0-.62-1.22,1.87,1.87,0,0,0-1.25-.41,2.05,2.05,0,0,0-1.64.71,3.63,3.63,0,0,0-.61,2.37,4.2,4.2,0,0,0,.62,2.61A2,2,0,0,0,307,343a1.85,1.85,0,0,0,1.28-.44A2.67,2.67,0,0,0,309,341l2.7,0.46a4.78,4.78,0,0,1-1.61,2.8,5,5,0,0,1-3.19.95,4.75,4.75,0,0,1-3.63-1.44,6.54,6.54,0,0,1,0-8,4.82,4.82,0,0,1,3.67-1.43,5,5,0,0,1,3,.82A4.52,4.52,0,0,1,311.52,337.7Z" transform="translate(-46 -209.67)" style="fill:#181515"/><path d="M319.6,341.7l2.73,0.46a4.49,4.49,0,0,1-1.67,2.29,4.89,4.89,0,0,1-2.85.79,4.64,4.64,0,0,1-4-1.77,5.94,5.94,0,0,1-1-3.57,5.73,5.73,0,0,1,1.35-4,4.44,4.44,0,0,1,3.41-1.46,4.6,4.6,0,0,1,3.65,1.53,6.76,6.76,0,0,1,1.28,4.68h-6.87a2.78,2.78,0,0,0,.66,1.9,2.08,2.08,0,0,0,1.58.68,1.68,1.68,0,0,0,1.08-.35A2.17,2.17,0,0,0,319.6,341.7Zm0.16-2.77a2.64,2.64,0,0,0-.62-1.81,2,2,0,0,0-2.91,0,2.53,2.53,0,0,0-.58,1.78h4.1Z" transform="translate(-46 -209.67)" style="fill:#181515"/><path d="M334.15,345h-2.74v-5.29a8.18,8.18,0,0,0-.18-2.17,1.52,1.52,0,0,0-.57-0.77,1.63,1.63,0,0,0-1-.27,2.2,2.2,0,0,0-1.28.39,2,2,0,0,0-.78,1,8.94,8.94,0,0,0-.21,2.38V345H324.7V334.63h2.55v1.52a4.25,4.25,0,0,1,5.08-1.43,2.78,2.78,0,0,1,1.14.83,3,3,0,0,1,.54,1.15,8.56,8.56,0,0,1,.15,1.85V345Z" transform="translate(-46 -209.67)" style="fill:#181515"/><path d="M341.69,334.63v2.19h-1.87V341a10.42,10.42,0,0,0,.05,1.48,0.6,0.6,0,0,0,.24.35,0.78,0.78,0,0,0,.46.14,3.55,3.55,0,0,0,1.1-.26l0.23,2.13a5.46,5.46,0,0,1-2.17.41,3.44,3.44,0,0,1-1.34-.25,2,2,0,0,1-.87-0.64,2.55,2.55,0,0,1-.39-1.07,13.31,13.31,0,0,1-.09-1.93v-4.52H335.8v-2.19h1.26v-2.06l2.75-1.6v3.66h1.88Z" transform="translate(-46 -209.67)" style="fill:#181515"/><path d="M349.6,341.7l2.73,0.46a4.49,4.49,0,0,1-1.67,2.29,4.89,4.89,0,0,1-2.85.79,4.64,4.64,0,0,1-4-1.77,5.94,5.94,0,0,1-1-3.57,5.73,5.73,0,0,1,1.35-4,4.44,4.44,0,0,1,3.41-1.46,4.6,4.6,0,0,1,3.65,1.53,6.76,6.76,0,0,1,1.28,4.68h-6.87a2.78,2.78,0,0,0,.66,1.9,2.08,2.08,0,0,0,1.58.68,1.68,1.68,0,0,0,1.08-.35A2.17,2.17,0,0,0,349.6,341.7Zm0.16-2.77a2.64,2.64,0,0,0-.62-1.81,2,2,0,0,0-2.91,0,2.53,2.53,0,0,0-.58,1.78h4.1Z" transform="translate(-46 -209.67)" style="fill:#181515"/><path d="M357.35,345H354.6V334.63h2.55v1.47a4.44,4.44,0,0,1,1.18-1.38,2.16,2.16,0,0,1,1.19-.33,3.49,3.49,0,0,1,1.81.52l-0.85,2.39a2.41,2.41,0,0,0-1.29-.45,1.52,1.52,0,0,0-1,.32,2.17,2.17,0,0,0-.63,1.15,16.31,16.31,0,0,0-.23,3.48V345Z" transform="translate(-46 -209.67)" style="fill:#181515"/></svg>