<svg xmlns="http://www.w3.org/2000/svg" xmlns:xlink="http://www.w3.org/1999/xlink" version="1.1" id="Capa_1" x="0" y="0" viewBox="0 0 470 470" xml:space="preserve" width="512" height="512"><path d="M194.96 15h82.137a7.5 7.5 0 000-15H194.96a7.5 7.5 0 000 15zm219.418 440h-23.06v-44.166c23.748-3.625 42-24.187 42-48.932s-18.252-45.307-42-48.932V208.935c0-46.682-37.979-84.661-84.661-84.661h-22.06V37.5a7.5 7.5 0 00-7.5-7.5H194.96a7.5 7.5 0 00-7.5 7.5v156.295h-2.5a7.5 7.5 0 000 15h13.687v27.3a7.5 7.5 0 007.5 7.5h59.764a7.5 7.5 0 007.5-7.5v-27.3h13.687a7.5 7.5 0 000-15h-2.5v-54.521h22.06c38.411 0 69.661 31.25 69.661 69.661V312.97c-23.748 3.625-42 24.187-42 48.932s18.252 45.307 42 48.932V455H52.984c3.083-8.575 11.297-14.723 20.92-14.723h279.914a7.5 7.5 0 000-15H273.41V293.596h62.16v2.5a7.5 7.5 0 0015 0v-87.161c0-24.214-19.7-43.914-43.914-43.914a7.5 7.5 0 000 15c15.943 0 28.914 12.971 28.914 28.914v69.661H153.984a7.5 7.5 0 000 15H258.41v100.622h-52.264a7.5 7.5 0 000 15h52.264v16.06H73.904c-20.524 0-37.222 16.698-37.222 37.223a7.5 7.5 0 007.5 7.5h370.196a7.5 7.5 0 000-15.001zM258.41 228.596h-44.764v-19.8h44.764v19.8zm-55.95-34.801V45h67.137v148.795H202.46zm146.858 168.107c0-19.021 15.473-34.496 34.494-34.5h.012c19.021.003 34.494 15.479 34.494 34.5 0 19.023-15.477 34.5-34.5 34.5s-34.5-15.476-34.5-34.5z" fill="#00a8bc"/></svg>