<svg xmlns="http://www.w3.org/2000/svg" xmlns:xlink="http://www.w3.org/1999/xlink" version="1.1" id="Layer_1" x="0" y="0" viewBox="0 0 511.991 511.991" xml:space="preserve" width="512" height="512"><g fill="#00a8bc"><path d="M261.324 175.891c-50.027 0-90.667 40.64-90.667 90.667s40.64 90.667 90.667 90.667 90.667-40.64 90.667-90.667c-.107-50.027-40.64-90.667-90.667-90.667zm0 160c-38.293 0-69.333-31.04-69.333-69.333s31.04-69.333 69.333-69.333 69.333 31.04 69.333 69.333c-.106 38.293-31.039 69.226-69.333 69.333z"/><path d="M511.991 217.278c0-58.987-47.787-106.88-106.56-106.88-15.893 0-31.573 3.627-45.973 10.453 3.947-48.213-25.387-94.827-73.28-110.4-55.894-18.133-116.054 12.373-134.187 68.373 0 .107-.107.213-.107.32-4.907 15.147-6.4 31.253-4.267 47.04-45.653-19.093-98.347-4.267-127.36 35.84-34.453 47.68-23.893 114.667 23.573 149.333 12.907 9.387 27.733 15.787 43.307 18.667-32.213 37.653-34.453 92.373-5.44 132.587 16.533 23.04 41.6 38.4 69.547 42.773 5.547.853 11.2 1.387 16.853 1.387 39.04-.107 74.88-21.547 93.44-56 25.6 42.24 77.013 61.333 124.053 45.973 55.893-18.24 86.613-78.613 68.373-134.613a106.707 106.707 0 00-24.213-40.64c48.321-11.627 82.241-54.72 82.241-104.213zm-107.2 85.546c-.107 0-1.067-.107-1.28-.107-5.333-.427-9.173 2.88-10.56 7.573-1.387 4.587.427 9.6 4.587 12.16 16.96 10.667 29.653 26.987 35.947 46.08 14.507 44.907-10.027 93.227-54.72 107.84-44.693 14.507-92.693-9.92-107.2-54.507-.107-.213-.107-.427-.213-.533-.107-.213-.32-1.28-.427-1.493-1.387-4.587-5.653-7.68-10.453-7.467-4.8.107-8.96 3.413-10.133 8.107a85.3 85.3 0 01-32.533 48.533c-37.973 27.627-91.2 19.307-118.827-18.667-.107-.107-.107-.213-.213-.213-27.627-38.187-19.2-91.84 18.773-119.467l-4.373-6.187v-.64l5.76 6.08c4.053-2.667 5.653-7.787 4.16-12.267-1.493-4.587-5.973-7.573-10.88-7.147-47.04 3.2-87.893-32.32-91.093-79.36a85.42 85.42 0 0116.213-56.213c27.52-38.08 80.533-46.613 118.613-19.2.213.107.32.213.533.427.107.107.853.747 1.067.853 4.693 3.627 11.307 2.773 14.933-1.92 2.347-2.987 2.88-7.04 1.493-10.56-7.467-18.667-8.213-39.36-2.027-58.453 14.4-44.8 62.4-69.44 107.2-55.04.107 0 .107 0 .213.107 44.693 14.613 69.333 62.933 54.72 107.947l-.533 1.28c-2.027 5.547.853 11.627 6.4 13.653 3.627 1.28 7.573.64 10.453-1.813 15.36-12.907 34.667-19.947 54.72-20.053 47.04 0 85.227 38.4 85.227 85.547-.107 46.827-38.294 85.12-85.547 85.12z"/></g></svg>