<svg xmlns="http://www.w3.org/2000/svg" xmlns:xlink="http://www.w3.org/1999/xlink" version="1.1" id="Capa_1" x="0" y="0" width="512" height="512" viewBox="0 0 386.864 386.865" xml:space="preserve"><path d="M298.915 269.268a.175.175 0 00-.032.04l-68.138-34.255c3.049-13.577.568-28.137-7.498-40.079l12.511-10.029c14.339 8.875 33.35 7.176 45.793-5.268 14.527-14.511 14.527-38.046 0-52.563-14.515-14.525-38.051-14.525-52.577 0-12.748 12.75-14.283 32.428-4.645 46.883l-11.778 9.428a51.311 51.311 0 00-27.437-10.977l-6.727-57.777c5.324-2.473 10.329-5.849 14.719-10.245 20.113-20.113 20.113-52.738 0-72.843-20.113-20.113-52.722-20.113-72.843.008-20.113 20.113-20.113 52.722 0 72.835 8.632 8.636 19.577 13.542 30.85 14.757l11.926 56.156c-6.893 2.486-13.385 6.444-18.917 11.97a51.93 51.93 0 00-6.776 8.37l-37.754-18.953c.307-5.446-1.545-10.997-5.715-15.174-7.754-7.749-20.324-7.749-28.078 0-7.758 7.758-7.758 20.326 0 28.082 7.334 7.332 18.923 7.652 26.729 1.114l38.396 19.282a51.657 51.657 0 00.863 30.128l-51.499 36.019c-20.031-13.541-47.47-11.461-65.203 6.271-20.113 20.113-20.113 52.726 0 72.835s52.722 20.109 72.843-.008c13.98-13.982 18.212-34.007 12.756-51.676l43.46-43.457c7.859 7.859 17.633 12.6 27.808 14.323l2.046 24.93a33.523 33.523 0 00-11.239 7.446c-13.188 13.176-13.188 34.544-.012 47.729 13.19 13.18 34.562 13.18 47.745 0 13.176-13.185 13.176-34.553-.016-47.729-5.827-5.835-13.271-8.941-20.903-9.614l-1.843-22.554c10.702-1.495 21.027-6.304 29.262-14.535.89-.877 1.671-1.811 2.477-2.745l64.728 42.663c-1.635 14.988 3.274 30.549 14.748 42.034 20.101 20.109 52.729 20.109 72.839 0 20.109-20.117 20.109-52.729 0-72.839-20.132-20.092-52.752-20.092-72.869.017z" fill="#10a9bb"/></svg>