<svg xmlns="http://www.w3.org/2000/svg" xmlns:xlink="http://www.w3.org/1999/xlink" version="1.1" id="Layer_1" x="0" y="0" viewBox="0 0 512 512" xml:space="preserve" width="512" height="512"><path d="M372.861 23.594C341.768 7.594 306.705 0 271.854 0 161.073 0 52.627 76.766 82.174 204.125l-19.469 23.562-34.406 62.984 33.477 26.594-1.391 44.75 13.375 19.172s-15.93 59.828 8.414 68.328c22.883 7.984 47.828 9.969 66.93 9.969 18.812 0 31.969-1.922 31.969-1.922L183.737 512h225.921s-22.359-112.844 11.609-160.766c33.938-47.937 144.688-228.226-48.406-327.64zm8.547 426.828c.594 15.141 1.984 29.109 3.375 40.25H204.049l-1.672-34.156-1.117-23.453-23.234 3.391c-.117.016-12.094 1.688-28.922 1.688-15.32 0-37.57-1.406-57.812-8.062-.914-2.719-2.039-9.625-.695-22.25 1.219-11.359 3.758-21.094 3.773-21.156l2.547-9.562-5.664-8.125-9.328-13.375 1.172-37.672.336-10.703-8.383-6.656-19.422-15.438 24.82-45.438 18.172-21.984 6.719-8.133-2.383-10.281c-5.312-22.914-5.781-44.688-1.383-64.711 4.016-18.305 12.094-35.188 24.008-50.188 15.352-19.312 37.109-35.359 62.922-46.383 25.555-10.922 54.383-16.695 83.351-16.695 32.711 0 64.258 7.344 91.242 21.234 28.266 14.547 50.781 31.648 66.938 50.828 13.922 16.516 23.453 35.023 28.328 55.008 8 32.758 4.031 70.305-11.781 111.586-13.5 35.219-32.562 64.562-42.734 78.906-16.861 23.811-24.423 61.342-22.439 111.53z" fill="#00a8bc"/><path d="M217.034 298.672c-5.891 0-10.664 4.766-10.664 10.656S211.143 320 217.034 320s10.664-4.781 10.664-10.672-4.774-10.656-10.664-10.656zm-42.664 42.656c-5.891 0-10.672 4.781-10.672 10.672s4.781 10.672 10.672 10.672 10.664-4.781 10.664-10.672-4.774-10.672-10.664-10.672zm-42.672-128c-5.891 0-10.664 4.781-10.664 10.672s4.773 10.664 10.664 10.664S142.37 229.891 142.37 224s-4.782-10.672-10.672-10.672zm-42.664 43.047c-5.891 0-10.664 4.766-10.664 10.672 0 5.875 4.773 10.656 10.664 10.656s10.664-4.781 10.664-10.656c0-5.906-4.774-10.672-10.664-10.672zm42.664 42.297c-5.891 0-10.664 4.766-10.664 10.656S125.807 320 131.698 320s10.672-4.781 10.672-10.672-4.782-10.656-10.672-10.656zm42.672-42.297c-5.891 0-10.672 4.766-10.672 10.672 0 5.875 4.781 10.656 10.672 10.656s10.664-4.781 10.664-10.656c0-5.906-4.774-10.672-10.664-10.672zm42.664-43.047c-5.891 0-10.664 4.781-10.664 10.672s4.773 10.664 10.664 10.664 10.664-4.773 10.664-10.664-4.774-10.672-10.664-10.672zm0 170.672c-5.891 0-10.664 4.766-10.664 10.672 0 5.875 4.773 10.656 10.664 10.656s10.664-4.781 10.664-10.656c0-5.906-4.774-10.672-10.664-10.672zm-85.336 0c-5.891 0-10.664 4.766-10.664 10.672 0 5.875 4.773 10.656 10.664 10.656s10.672-4.781 10.672-10.656c0-5.906-4.782-10.672-10.672-10.672zm127.999-42.672c-5.89 0-10.664 4.781-10.664 10.672s4.773 10.672 10.664 10.672 10.672-4.781 10.672-10.672-4.781-10.672-10.672-10.672zm0-84.953c-5.89 0-10.664 4.766-10.664 10.672 0 5.875 4.773 10.656 10.664 10.656s10.672-4.781 10.672-10.656c0-5.906-4.781-10.672-10.672-10.672z" fill="#00a8bc"/></svg>