<svg xmlns="http://www.w3.org/2000/svg" xmlns:xlink="http://www.w3.org/1999/xlink" version="1.1" id="Layer_1" x="0" y="0" viewBox="0 0 509.808 509.808" xml:space="preserve" width="512" height="512"><g fill="#00a8bc"><path d="M463.253 355.832c2.389-1.728 4.715-3.52 6.827-5.589 12.395-12.224 18.411-29.461 18.411-52.693 0-37.419-19.52-56.064-49.344-65.387 6.315-2.901 11.904-6.336 16.299-10.795 7.936-8.085 11.861-18.389 11.669-30.635-.277-17.557-18.048-30.891-44.331-39.808 4.928-2.176 9.259-4.907 12.8-8.427 6.784-6.72 10.219-15.595 10.219-26.261 0-40.277-50.176-85.333-117.333-85.333S211.136 75.96 211.136 116.237c0 10.667 3.435 19.499 10.197 26.24 3.541 3.52 7.957 6.144 12.885 8.32-19.925 6.72-34.944 15.957-41.216 27.627-11.627-11.989-27.861-19.52-45.867-19.52-30.955 0-56.832 22.101-62.72 51.349-28.267-9.515-60.331 1.856-75.819 28.651-15.467 26.795-9.28 60.267 13.099 79.979-22.4 19.712-28.629 53.184-13.141 80.021 11.861 20.523 33.408 32 55.552 32 6.827 0 13.611-1.515 20.267-3.776 5.739 29.44 31.659 51.776 62.763 51.776 21.205 0 39.915-10.496 51.563-26.453 30.805 16.427 82.901 26.453 140.437 26.453 73.387 0 136.149-15.637 159.872-39.829 7.339-7.488 10.965-15.701 10.795-24.363-.726-35.477-18.88-51.627-46.55-58.88zm3.883-58.261c0 17.237-3.947 29.504-12.053 37.504-9.685 9.557-26.005 13.547-46.059 15.189-11.371-.128-23.232.064-35.435.256-10.091.171-20.651.299-31.317.469-16.789-.128-34.091-.277-50.795-2.155-1.536-5.248-3.883-10.197-6.72-14.912-.491-.832-.981-1.664-1.515-2.475-3.008-4.523-6.421-8.811-10.624-12.523l-.021-.021.128-.128c.085-.085.149-.171.256-.256 2.795-2.496 5.291-5.291 7.595-8.235.533-.683 1.024-1.408 1.536-2.112 1.813-2.539 3.456-5.184 4.885-7.979.341-.661.725-1.301 1.045-1.984 1.621-3.456 3.051-7.019 4.053-10.773 1.024-3.84 1.6-7.723 1.899-11.584.064-.789 0-1.579.043-2.347.128-3.093.085-6.165-.235-9.216-.107-1.131-.32-2.261-.491-3.392a62.929 62.929 0 00-1.835-8.128c-.363-1.216-.725-2.411-1.152-3.605-.32-.875-.491-1.792-.853-2.645 12.693-1.536 25.749-2.304 38.997-2.304 88.556.022 138.668 2.476 138.668 53.356zM232.469 116.237c0-28.992 42.816-64 96-64s96 35.008 96 64c0 6.464-2.24 9.429-3.925 11.115-10.624 10.56-43.328 10.368-77.931 10.24l-14.144-.021-14.144.043c-34.581.213-67.307.341-77.931-10.24-1.685-1.686-3.925-4.63-3.925-11.137zm96 42.667c75.584 0 117.163 21.248 117.333 32.171.107 6.485-1.664 11.371-5.547 15.317-15.424 15.701-62.037 16.469-105.067 16.491h-6.955c-22.613-.021-44.651-2.069-63.957-5.995-.277-.171-.597-.235-.875-.384-9.728-5.888-20.736-9.152-32.064-9.365-13.931-6.037-20.203-12.416-20.203-16.235.002-10.88 41.41-32 117.335-32zM192.853 271.437a405.487 405.487 0 003.328-5.867 249.31 249.31 0 002.112-3.925c1.067-2.027 2.048-4.032 3.029-6.037.533-1.109 1.109-2.219 1.6-3.328a133.082 133.082 0 003.733-8.939c.192-.512.32-.981.491-1.493a85.269 85.269 0 002.304-7.509c.064-.256.171-.533.235-.789 6.229-3.413 12.928-4.928 19.605-5.077.043 0 .085.021.128.021 8.939-.299 17.493 2.347 24.768 7.275h.021c5.163 3.499 9.728 8.043 13.035 13.803 10.283 17.813 6.208 40.043-8.576 53.205a42.06 42.06 0 01-6.997 5.035c-.213.128-.491.192-.704.32-.768.405-1.792.725-2.709 1.088-2.56.96-5.504 1.771-8.896 2.368-.043 0-.085.021-.128.021-7.36 1.301-16.384 1.813-25.941 1.835h-.683c-4.587 0-9.301-.107-13.995-.32-.171 0-.32-.021-.491-.021-11.072-.491-21.888-1.429-31.232-2.453.299-.405.64-.875.939-1.301a353.673 353.673 0 003.947-5.461c.597-.853 1.216-1.707 1.835-2.603a582.7 582.7 0 003.819-5.504c.683-1.003 1.365-1.984 2.048-3.008a401.304 401.304 0 004.608-6.997c.427-.661.832-1.28 1.259-1.941a363.967 363.967 0 005.461-8.853c.703-1.198 1.365-2.371 2.047-3.545zm-45.738-91.221c23.531 0 42.667 19.136 42.667 42.667 0 1.067-.341 2.411-.533 3.627-.448 2.667-1.195 5.547-2.347 8.725-.043.128-.085.235-.128.363-2.517 6.912-6.507 14.848-11.179 22.997-.32.555-.683 1.131-1.003 1.707a346.738 346.738 0 01-6.4 10.539c-.363.576-.747 1.173-1.109 1.749a415.88 415.88 0 01-7.339 11.093 1.811 1.811 0 00-.171.256c-3.371 4.949-6.613 9.451-9.707 13.675-4.821-11.008-11.648-25.557-19.52-39.573a3.603 3.603 0 00-.235-.384 285.516 285.516 0 00-5.312-9.003c-.405-.64-.789-1.28-1.195-1.92a193.394 193.394 0 00-5.099-7.723c-.341-.491-.661-.981-1.003-1.451a139.155 139.155 0 00-6.229-8.171c-.192-.235-.384-.427-.576-.64-1.92-2.261-3.84-4.331-5.781-6.208-.171-.171-.32-.384-.491-.533.492-23.104 19.457-41.771 42.69-41.792zM27.051 249.571c7.893-13.696 22.251-21.333 37.013-21.333a42.308 42.308 0 0121.269 5.717c.896.512 1.856 1.451 2.795 2.197 14.315 11.733 31.509 46.08 41.984 69.781-.448-.043-1.003-.107-1.472-.149-2.219-.235-4.544-.491-6.997-.725-.875-.085-1.728-.149-2.624-.235-2.56-.235-5.205-.448-7.957-.661-.725-.064-1.429-.107-2.176-.171-7.168-.512-14.72-.875-22.336-.96h-1.877c-3.051-.021-6.08 0-9.088.085-.981.021-1.963.064-2.944.085-2.923.107-5.781.277-8.576.512-.725.064-1.472.107-2.197.171-3.477.32-6.848.747-10.048 1.28-.363.064-.704.149-1.067.213a86.804 86.804 0 00-8 1.835c-.235.064-.533.107-.789.171-19.841-11.925-26.54-37.696-14.913-57.813zm74.688 116.288a233.679 233.679 0 00-3.776 6.699c-.619 1.109-1.195 2.219-1.792 3.328a186.345 186.345 0 00-3.435 6.848c-.427.896-.875 1.771-1.28 2.645a146.452 146.452 0 00-3.84 9.173c-.149.405-.256.789-.405 1.195-.96 2.667-1.749 5.227-2.368 7.744-.043.235-.171.512-.235.747-20.309 11.2-45.931 4.096-57.557-16.021-11.755-20.373-4.757-46.528 15.616-58.283.96-.555 2.368-.939 3.584-1.408 2.432-.896 5.184-1.643 8.32-2.219.299-.064.576-.128.875-.171 8.576-1.472 19.371-1.856 30.613-1.685 4.629.064 9.344.235 14.123.469 2.987.171 5.973.32 8.896.533 4.565.341 9.024.725 13.397 1.152 1.728.171 3.285.341 4.907.512-.875 1.195-1.856 2.581-2.795 3.861-.533.747-1.045 1.451-1.6 2.219a240.426 240.426 0 00-2.773 3.947c-1.024 1.472-2.069 2.965-3.115 4.501a465.058 465.058 0 00-2.325 3.435 587.172 587.172 0 00-4.693 7.125c-.363.576-.725 1.109-1.088 1.685a346.347 346.347 0 00-5.611 9.131 95.394 95.394 0 00-1.643 2.838zm83.669 67.434c-.064.107-.043.235-.085.341-6.976 14.123-21.397 23.936-38.187 23.936-23.531 0-42.667-19.136-42.667-42.667 0-1.045.32-2.389.512-3.605.448-2.688 1.216-5.611 2.368-8.832.021-.085.043-.149.064-.235 2.539-6.997 6.592-15.019 11.328-23.275.171-.277.341-.576.512-.875a334.984 334.984 0 017.019-11.563c.192-.277.363-.576.555-.853 5.909-9.259 12.075-18.069 17.579-25.579a585.975 585.975 0 008.597 18.645c.021.021.021.064.043.085 3.243 6.677 6.848 13.675 10.709 20.587.235.427.469.832.725 1.237a297.724 297.724 0 004.779 8.107 207.197 207.197 0 006.251 9.622c.427.619.853 1.259 1.28 1.877 2.027 2.859 4.075 5.568 6.144 8.064.213.256.427.469.64.725 1.899 2.24 3.797 4.288 5.717 6.144.128.128.256.299.384.405-.086 6.019-1.473 11.971-4.267 17.709zm-21.227-101.44c.299.043.683.064.981.107 2.368.256 4.843.512 7.488.768.747.064 1.493.149 2.24.213 2.645.235 5.376.469 8.213.683l2.709.192c2.667.192 5.397.341 8.171.469 1.216.064 2.432.128 3.648.171 2.539.107 5.077.171 7.637.213 1.451.021 2.859.064 4.309.085.683 0 1.387.043 2.069.043 1.003 0 1.941-.064 2.944-.085 3.115-.021 6.165-.107 9.195-.256 1.536-.064 3.029-.171 4.544-.277 3.115-.213 6.08-.533 9.003-.917 1.28-.171 2.603-.299 3.84-.491 3.456-.555 6.699-1.237 9.707-2.069.427-.107.96-.171 1.365-.299 5.163 3.115 9.579 7.232 12.928 12.139.064.085.107.192.171.277 3.435 5.099 5.781 10.987 6.805 17.344 0 .021.021.043.021.064.256 1.621.533 3.221.619 4.885 0 .107-.064.213-.043.341.128 3.776-.32 7.467-1.109 11.029-.128.512-.213 1.045-.363 1.557-.939 3.584-2.24 7.04-4.096 10.24-.235.405-.576.747-.832 1.152-1.28 2.048-2.624 4.053-4.181 5.803-.171.192-.405.341-.576.533-9.173 9.963-22.507 14.848-35.691 13.504-.32-.043-.64 0-.96-.021-2.24-.277-4.459-.853-6.677-1.515-.491-.149-1.024-.192-1.515-.363a43.182 43.182 0 01-7.808-3.52c-.896-.512-1.856-1.451-2.795-2.197-14.291-11.732-31.507-46.079-41.961-69.802zm319.573 92.267c-15.765 16.107-67.755 33.451-144.619 33.451-53.845 0-103.701-9.28-130.901-24.021.448-1.387.768-2.795 1.109-4.181.149-.597.384-1.152.512-1.771.981.341 1.984.491 2.987.768.789.213 1.557.427 2.368.619 4.757 1.152 9.579 1.835 14.464 1.877.171 0 .32.064.491.064.32 0 .64-.128.96-.128 5.248-.085 10.496-.661 15.701-2.048 4.885-1.323 9.429-3.307 13.76-5.653 1.088-.597 2.091-1.301 3.157-1.963a62.006 62.006 0 009.408-7.083c1.024-.917 2.027-1.792 2.987-2.795 3.584-3.712 6.891-7.744 9.557-12.331 1.088-1.899 1.792-3.989 2.688-5.995 2.667-5.952 4.651-12.075 5.397-18.325 14.848-1.515 29.931-2.048 44.736-2.304 5.504.064 10.944.107 16.277.192 8.021.107 15.851.213 23.445.213 10.901 0 21.269-.277 31.061-1.024 52.523.555 78.443 7.445 79.189 43.456.045 2.71-1.555 5.74-4.734 8.982z"/><path d="M272.448 115.576c2.624 0 5.227-.96 7.296-2.859 4.459-4.16 21.163-17.813 48.725-17.813 5.888 0 10.667-4.779 10.667-10.667s-4.779-10.667-10.667-10.667c-35.392 0-57.408 18.027-63.317 23.552-4.288 4.032-4.501 10.773-.491 15.083 2.091 2.262 4.95 3.371 7.787 3.371z"/></g></svg>