<?xml version="1.0" encoding="iso-8859-1"?>
<!-- Generator: Adobe Illustrator 19.0.0, SVG Export Plug-In . SVG Version: 6.00 Build 0)  -->
<svg xmlns="http://www.w3.org/2000/svg" xmlns:xlink="http://www.w3.org/1999/xlink" version="1.1" id="Layer_1" x="0px" y="0px" viewBox="0 0 509.808 509.808" style="enable-background:new 0 0 509.808 509.808;" xml:space="preserve" width="512px" height="512px">
<g>
	<g>
		<g>
			<path d="M463.253,355.832c2.389-1.728,4.715-3.52,6.827-5.589c12.395-12.224,18.411-29.461,18.411-52.693     c0-37.419-19.52-56.064-49.344-65.387c6.315-2.901,11.904-6.336,16.299-10.795c7.936-8.085,11.861-18.389,11.669-30.635     c-0.277-17.557-18.048-30.891-44.331-39.808c4.928-2.176,9.259-4.907,12.8-8.427c6.784-6.72,10.219-15.595,10.219-26.261     c0-40.277-50.176-85.333-117.333-85.333S211.136,75.96,211.136,116.237c0,10.667,3.435,19.499,10.197,26.24     c3.541,3.52,7.957,6.144,12.885,8.32c-19.925,6.72-34.944,15.957-41.216,27.627c-11.627-11.989-27.861-19.52-45.867-19.52     c-30.955,0-56.832,22.101-62.72,51.349c-28.267-9.515-60.331,1.856-75.819,28.651c-15.467,26.795-9.28,60.267,13.099,79.979     c-22.4,19.712-28.629,53.184-13.141,80.021c11.861,20.523,33.408,32,55.552,32c6.827,0,13.611-1.515,20.267-3.776     c5.739,29.44,31.659,51.776,62.763,51.776c21.205,0,39.915-10.496,51.563-26.453c30.805,16.427,82.901,26.453,140.437,26.453     c73.387,0,136.149-15.637,159.872-39.829c7.339-7.488,10.965-15.701,10.795-24.363     C509.077,379.235,490.923,363.085,463.253,355.832z M467.136,297.571c0,17.237-3.947,29.504-12.053,37.504     c-9.685,9.557-26.005,13.547-46.059,15.189c-11.371-0.128-23.232,0.064-35.435,0.256c-10.091,0.171-20.651,0.299-31.317,0.469     c-16.789-0.128-34.091-0.277-50.795-2.155c-1.536-5.248-3.883-10.197-6.72-14.912c-0.491-0.832-0.981-1.664-1.515-2.475     c-3.008-4.523-6.421-8.811-10.624-12.523l-0.021-0.021c0.043-0.043,0.085-0.085,0.128-0.128c0.085-0.085,0.149-0.171,0.256-0.256     c2.795-2.496,5.291-5.291,7.595-8.235c0.533-0.683,1.024-1.408,1.536-2.112c1.813-2.539,3.456-5.184,4.885-7.979     c0.341-0.661,0.725-1.301,1.045-1.984c1.621-3.456,3.051-7.019,4.053-10.773c1.024-3.84,1.6-7.723,1.899-11.584     c0.064-0.789,0-1.579,0.043-2.347c0.128-3.093,0.085-6.165-0.235-9.216c-0.107-1.131-0.32-2.261-0.491-3.392     c-0.427-2.752-1.045-5.44-1.835-8.128c-0.363-1.216-0.725-2.411-1.152-3.605c-0.32-0.875-0.491-1.792-0.853-2.645     c12.693-1.536,25.749-2.304,38.997-2.304C417.024,244.237,467.136,246.691,467.136,297.571z M232.469,116.237     c0-28.992,42.816-64,96-64c53.184,0,96,35.008,96,64c0,6.464-2.24,9.429-3.925,11.115c-10.624,10.56-43.328,10.368-77.931,10.24     l-14.144-0.021l-14.144,0.043c-34.581,0.213-67.307,0.341-77.931-10.24C234.709,125.688,232.469,122.744,232.469,116.237z      M328.469,158.904c75.584,0,117.163,21.248,117.333,32.171c0.107,6.485-1.664,11.371-5.547,15.317     c-15.424,15.701-62.037,16.469-105.067,16.491c-2.24,0-4.459,0-6.699,0c-0.085,0-0.171,0-0.256,0     c-22.613-0.021-44.651-2.069-63.957-5.995c-0.277-0.171-0.597-0.235-0.875-0.384c-9.728-5.888-20.736-9.152-32.064-9.365     c-13.931-6.037-20.203-12.416-20.203-16.235C211.136,180.024,252.544,158.904,328.469,158.904z M192.853,271.437     c1.131-1.963,2.24-3.904,3.328-5.867c0.725-1.323,1.429-2.624,2.112-3.925c1.067-2.027,2.048-4.032,3.029-6.037     c0.533-1.109,1.109-2.219,1.6-3.328c1.387-3.029,2.645-6.016,3.733-8.939c0.192-0.512,0.32-0.981,0.491-1.493     c0.917-2.581,1.685-5.077,2.304-7.509c0.064-0.256,0.171-0.533,0.235-0.789c6.229-3.413,12.928-4.928,19.605-5.077     c0.043,0,0.085,0.021,0.128,0.021c8.939-0.299,17.493,2.347,24.768,7.275c0,0,0,0,0.021,0c5.163,3.499,9.728,8.043,13.035,13.803     c10.283,17.813,6.208,40.043-8.576,53.205c-2.112,1.877-4.437,3.563-6.997,5.035c-0.213,0.128-0.491,0.192-0.704,0.32     c-0.768,0.405-1.792,0.725-2.709,1.088c-2.56,0.96-5.504,1.771-8.896,2.368c-0.043,0-0.085,0.021-0.128,0.021     c-7.36,1.301-16.384,1.813-25.941,1.835c-0.213,0-0.448,0-0.683,0c-4.587,0-9.301-0.107-13.995-0.32     c-0.171,0-0.32-0.021-0.491-0.021c-11.072-0.491-21.888-1.429-31.232-2.453c0.299-0.405,0.64-0.875,0.939-1.301     c1.28-1.728,2.581-3.541,3.947-5.461c0.597-0.853,1.216-1.707,1.835-2.603c1.259-1.792,2.517-3.605,3.819-5.504     c0.683-1.003,1.365-1.984,2.048-3.008c1.536-2.283,3.072-4.608,4.608-6.997c0.427-0.661,0.832-1.28,1.259-1.941     c1.856-2.901,3.669-5.867,5.461-8.853C191.509,273.784,192.171,272.611,192.853,271.437z M147.115,180.216     c23.531,0,42.667,19.136,42.667,42.667c0,1.067-0.341,2.411-0.533,3.627c-0.448,2.667-1.195,5.547-2.347,8.725     c-0.043,0.128-0.085,0.235-0.128,0.363c-2.517,6.912-6.507,14.848-11.179,22.997c-0.32,0.555-0.683,1.131-1.003,1.707     c-2.048,3.499-4.181,7.04-6.4,10.539c-0.363,0.576-0.747,1.173-1.109,1.749c-2.411,3.776-4.885,7.509-7.339,11.093     c-0.064,0.085-0.128,0.171-0.171,0.256c-3.371,4.949-6.613,9.451-9.707,13.675c-4.821-11.008-11.648-25.557-19.52-39.573     c-0.064-0.128-0.149-0.256-0.235-0.384c-1.728-3.051-3.499-6.059-5.312-9.003c-0.405-0.64-0.789-1.28-1.195-1.92     c-1.664-2.667-3.371-5.227-5.099-7.723c-0.341-0.491-0.661-0.981-1.003-1.451c-2.048-2.901-4.139-5.632-6.229-8.171     c-0.192-0.235-0.384-0.427-0.576-0.64c-1.92-2.261-3.84-4.331-5.781-6.208c-0.171-0.171-0.32-0.384-0.491-0.533     C104.917,198.904,123.882,180.237,147.115,180.216z M27.051,249.571c7.893-13.696,22.251-21.333,37.013-21.333     c7.232,0,14.571,1.835,21.269,5.717c0.896,0.512,1.856,1.451,2.795,2.197c14.315,11.733,31.509,46.08,41.984,69.781     c-0.448-0.043-1.003-0.107-1.472-0.149c-2.219-0.235-4.544-0.491-6.997-0.725c-0.875-0.085-1.728-0.149-2.624-0.235     c-2.56-0.235-5.205-0.448-7.957-0.661c-0.725-0.064-1.429-0.107-2.176-0.171c-7.168-0.512-14.72-0.875-22.336-0.96     c-0.64,0-1.259,0-1.877,0c-3.051-0.021-6.08,0-9.088,0.085c-0.981,0.021-1.963,0.064-2.944,0.085     c-2.923,0.107-5.781,0.277-8.576,0.512c-0.725,0.064-1.472,0.107-2.197,0.171c-3.477,0.32-6.848,0.747-10.048,1.28     c-0.363,0.064-0.704,0.149-1.067,0.213c-2.837,0.512-5.483,1.131-8,1.835c-0.235,0.064-0.533,0.107-0.789,0.171     C22.123,295.459,15.424,269.688,27.051,249.571z M101.739,365.859c-1.301,2.219-2.56,4.459-3.776,6.699     c-0.619,1.109-1.195,2.219-1.792,3.328c-1.216,2.304-2.347,4.565-3.435,6.848c-0.427,0.896-0.875,1.771-1.28,2.645     c-1.429,3.115-2.709,6.187-3.84,9.173c-0.149,0.405-0.256,0.789-0.405,1.195c-0.96,2.667-1.749,5.227-2.368,7.744     c-0.043,0.235-0.171,0.512-0.235,0.747c-20.309,11.2-45.931,4.096-57.557-16.021c-11.755-20.373-4.757-46.528,15.616-58.283     c0.96-0.555,2.368-0.939,3.584-1.408c2.432-0.896,5.184-1.643,8.32-2.219c0.299-0.064,0.576-0.128,0.875-0.171     c8.576-1.472,19.371-1.856,30.613-1.685c4.629,0.064,9.344,0.235,14.123,0.469c2.987,0.171,5.973,0.32,8.896,0.533     c4.565,0.341,9.024,0.725,13.397,1.152c1.728,0.171,3.285,0.341,4.907,0.512c-0.875,1.195-1.856,2.581-2.795,3.861     c-0.533,0.747-1.045,1.451-1.6,2.219c-0.917,1.28-1.835,2.581-2.773,3.947c-1.024,1.472-2.069,2.965-3.115,4.501     c-0.789,1.152-1.536,2.261-2.325,3.435c-1.557,2.325-3.115,4.693-4.693,7.125c-0.363,0.576-0.725,1.109-1.088,1.685     c-1.899,2.987-3.776,6.037-5.611,9.131C102.805,363.982,102.272,364.899,101.739,365.859z M185.408,433.293     c-0.064,0.107-0.043,0.235-0.085,0.341c-6.976,14.123-21.397,23.936-38.187,23.936c-23.531,0-42.667-19.136-42.667-42.667     c0-1.045,0.32-2.389,0.512-3.605c0.448-2.688,1.216-5.611,2.368-8.832c0.021-0.085,0.043-0.149,0.064-0.235     c2.539-6.997,6.592-15.019,11.328-23.275c0.171-0.277,0.341-0.576,0.512-0.875c2.219-3.84,4.587-7.723,7.019-11.563     c0.192-0.277,0.363-0.576,0.555-0.853c5.909-9.259,12.075-18.069,17.579-25.579c2.411,5.483,5.333,11.883,8.597,18.645     c0.021,0.021,0.021,0.064,0.043,0.085c3.243,6.677,6.848,13.675,10.709,20.587c0.235,0.427,0.469,0.832,0.725,1.237     c1.557,2.752,3.157,5.44,4.779,8.107c0.512,0.832,1.024,1.664,1.536,2.475c1.557,2.453,3.115,4.843,4.715,7.147     c0.427,0.619,0.853,1.259,1.28,1.877c2.027,2.859,4.075,5.568,6.144,8.064c0.213,0.256,0.427,0.469,0.64,0.725     c1.899,2.24,3.797,4.288,5.717,6.144c0.128,0.128,0.256,0.299,0.384,0.405C189.589,421.603,188.202,427.555,185.408,433.293z      M164.181,331.853c0.299,0.043,0.683,0.064,0.981,0.107c2.368,0.256,4.843,0.512,7.488,0.768c0.747,0.064,1.493,0.149,2.24,0.213     c2.645,0.235,5.376,0.469,8.213,0.683c0.917,0.064,1.792,0.128,2.709,0.192c2.667,0.192,5.397,0.341,8.171,0.469     c1.216,0.064,2.432,0.128,3.648,0.171c2.539,0.107,5.077,0.171,7.637,0.213c1.451,0.021,2.859,0.064,4.309,0.085     c0.683,0,1.387,0.043,2.069,0.043c1.003,0,1.941-0.064,2.944-0.085c3.115-0.021,6.165-0.107,9.195-0.256     c1.536-0.064,3.029-0.171,4.544-0.277c3.115-0.213,6.08-0.533,9.003-0.917c1.28-0.171,2.603-0.299,3.84-0.491     c3.456-0.555,6.699-1.237,9.707-2.069c0.427-0.107,0.96-0.171,1.365-0.299c5.163,3.115,9.579,7.232,12.928,12.139     c0.064,0.085,0.107,0.192,0.171,0.277c3.435,5.099,5.781,10.987,6.805,17.344c0,0.021,0.021,0.043,0.021,0.064     c0.256,1.621,0.533,3.221,0.619,4.885c0,0.107-0.064,0.213-0.043,0.341c0.128,3.776-0.32,7.467-1.109,11.029     c-0.128,0.512-0.213,1.045-0.363,1.557c-0.939,3.584-2.24,7.04-4.096,10.24c-0.235,0.405-0.576,0.747-0.832,1.152     c-1.28,2.048-2.624,4.053-4.181,5.803c-0.171,0.192-0.405,0.341-0.576,0.533c-9.173,9.963-22.507,14.848-35.691,13.504     c-0.32-0.043-0.64,0-0.96-0.021c-2.24-0.277-4.459-0.853-6.677-1.515c-0.491-0.149-1.024-0.192-1.515-0.363     c-2.667-0.896-5.291-2.069-7.808-3.52c-0.896-0.512-1.856-1.451-2.795-2.197C191.851,389.923,174.635,355.576,164.181,331.853z      M483.754,424.12c-15.765,16.107-67.755,33.451-144.619,33.451c-53.845,0-103.701-9.28-130.901-24.021     c0.448-1.387,0.768-2.795,1.109-4.181c0.149-0.597,0.384-1.152,0.512-1.771c0.981,0.341,1.984,0.491,2.987,0.768     c0.789,0.213,1.557,0.427,2.368,0.619c4.757,1.152,9.579,1.835,14.464,1.877c0.171,0,0.32,0.064,0.491,0.064     c0.32,0,0.64-0.128,0.96-0.128c5.248-0.085,10.496-0.661,15.701-2.048c4.885-1.323,9.429-3.307,13.76-5.653     c1.088-0.597,2.091-1.301,3.157-1.963c3.371-2.069,6.485-4.416,9.408-7.083c1.024-0.917,2.027-1.792,2.987-2.795     c3.584-3.712,6.891-7.744,9.557-12.331c1.088-1.899,1.792-3.989,2.688-5.995c2.667-5.952,4.651-12.075,5.397-18.325     c14.848-1.515,29.931-2.048,44.736-2.304c5.504,0.064,10.944,0.107,16.277,0.192c8.021,0.107,15.851,0.213,23.445,0.213     c10.901,0,21.269-0.277,31.061-1.024c52.523,0.555,78.443,7.445,79.189,43.456C488.533,417.848,486.933,420.878,483.754,424.12z" fill="#00a8bc"/>
			<path d="M272.448,115.576c2.624,0,5.227-0.96,7.296-2.859c4.459-4.16,21.163-17.813,48.725-17.813     c5.888,0,10.667-4.779,10.667-10.667s-4.779-10.667-10.667-10.667c-35.392,0-57.408,18.027-63.317,23.552     c-4.288,4.032-4.501,10.773-0.491,15.083C266.752,114.467,269.611,115.576,272.448,115.576z" fill="#00a8bc"/>
		</g>
	</g>
</g>
<g>
</g>
<g>
</g>
<g>
</g>
<g>
</g>
<g>
</g>
<g>
</g>
<g>
</g>
<g>
</g>
<g>
</g>
<g>
</g>
<g>
</g>
<g>
</g>
<g>
</g>
<g>
</g>
<g>
</g>
</svg>
