<svg xmlns="http://www.w3.org/2000/svg" xmlns:xlink="http://www.w3.org/1999/xlink" version="1.1" id="Layer_1" x="0" y="0" viewBox="0 0 511.187 511.187" xml:space="preserve" width="512" height="512"><g fill="#00a8bc"><path d="M101.4 374.06c-9.387 0-17.067 7.68-17.067 17.067s7.68 17.067 17.067 17.067 17.067-7.68 17.067-17.067-7.68-17.067-17.067-17.067zm307.2 0c-9.387 0-17.067 7.68-17.067 17.067s7.68 17.067 17.067 17.067 17.067-7.68 17.067-17.067-7.68-17.067-17.067-17.067z" transform="translate(1 1)"/><path d="M510.147 372.354V248.62c0-14.507-11.947-27.307-27.307-27.307H447l-.853-.853-6.827-8.533-49.493-62.293c-7.68-9.387-17.92-14.507-29.867-14.507h-62.293v-43.52c0-18.773-14.507-33.28-32.427-33.28H32.28C13.507 58.327-1 72.834-1 91.607v282.454c0 14.507 11.093 25.6 25.6 25.6h17.669c4.075 29.155 28.753 51.2 59.131 51.2s55.056-22.045 59.131-51.2H349.47c4.075 29.155 28.753 51.2 59.131 51.2s55.056-22.045 59.131-51.2h15.109c15.359-.001 28.159-12.801 27.306-27.307zm-161.28-220.161h11.947c5.973 0 11.947 2.56 16.213 7.68l28.16 34.987H354.84c-3.413 0-5.973-2.56-5.973-5.973v-36.694zm-332.8-60.586c0-9.387 6.827-16.213 16.213-16.213h232.107c9.387 0 16.213 7.68 16.213 16.213v188.587H16.067V91.607zM101.4 433.794c-23.893 0-42.667-18.773-42.667-42.667 0-23.893 18.773-42.667 42.667-42.667 23.893 0 42.667 18.773 42.667 42.667 0 23.893-18.774 42.667-42.667 42.667zm179.2-51.2H160.531c-3.821-27.339-25.761-48.416-53.528-50.936-.203-.019-.409-.029-.613-.046-.699-.056-1.397-.114-2.103-.147-.957-.046-1.919-.072-2.887-.072s-1.93.026-2.887.072c-.706.033-1.404.09-2.103.147-.204.017-.41.027-.613.046-27.767 2.52-49.707 23.597-53.528 50.936H24.6c-5.12 0-8.533-3.413-8.533-8.533v-76.8H280.6v85.333zm128 51.2c-23.893 0-42.667-18.773-42.667-42.667 0-23.893 18.773-42.667 42.667-42.667 23.893 0 42.667 18.773 42.667 42.667 0 23.893-18.774 42.667-42.667 42.667zm84.48-153.6H357.4c-5.12 0-8.533 3.413-8.533 8.533 0 5.12 3.413 8.533 8.533 8.533h135.68v74.24c0 5.973-4.267 11.093-10.24 11.093h-15.109c-4.075-29.155-28.753-51.2-59.131-51.2-30.673 0-55.529 22.477-59.237 52.053h-51.696V153.047H331.8v35.84c0 12.8 10.24 23.04 23.04 23.04h62.293l15.36 19.627c3.413 4.267 8.533 6.827 14.507 6.827h35.84c5.12 0 10.24 4.267 10.24 10.24v31.573z" transform="translate(1 1)"/><path d="M189.293 152.193h-19.627v-19.627c0-8.533-5.973-14.507-13.653-14.507h-23.04c-8.533 0-14.507 5.973-14.507 14.507v18.773H98.84c-8.533 0-14.507 6.827-14.507 14.507v23.04c0 8.533 5.973 14.507 13.653 14.507h19.627v19.627c0 8.533 6.827 14.507 14.507 14.507h23.04c8.533 0 14.507-5.973 14.507-13.653v-19.627h19.627c8.533 0 14.507-6.827 14.507-14.507V166.7c-.001-8.533-6.828-14.507-14.508-14.507zm-2.56 34.134h-19.627c-8.533 0-14.507 6.827-14.507 14.507v19.627h-17.067v-19.627c0-8.533-6.827-14.507-14.507-14.507H101.4V169.26h19.627c8.533 0 14.507-6.827 14.507-14.507v-19.627H152.6v19.627c0 8.533 6.827 14.507 14.507 14.507h19.627v17.067z" transform="translate(1 1)"/></g></svg>