<svg xmlns="http://www.w3.org/2000/svg" xmlns:xlink="http://www.w3.org/1999/xlink" version="1.1" id="Capa_1" x="0" y="0" viewBox="0 0 512.001 512.001" xml:space="preserve" width="512" height="512"><path d="M385.968 46.993c-5.52 0-10 4.48-10 10s4.48 10 10 10 10-4.48 10-10-4.478-10-10-10z" data-original="#000000" class="active-path" data-old_color="#000000" fill="#00A8BC"/><path d="M395.123 7.999c-62.714-20.11-115.125 2.394-139.154 16.261-24.027-13.87-76.43-36.375-139.159-16.261C33.738 34.646-5.209 155.948 61.398 253.824c31.557 46.352 35.771 82.105 40.232 119.958 3.266 27.709 6.643 56.362 20.749 89.86 9.486 22.52 22.895 48.281 42.734 48.279.179 0 .362-.002.542-.006 15.953-.377 28.809-16.199 41.681-51.304 6.557-17.895 10.758-39.011 14.821-59.43 7.313-36.754 14.876-74.759 33.883-74.892h.101c18.799 0 26.345 38.018 33.643 74.783 4.065 20.484 8.269 41.667 14.825 59.541 12.888 35.159 25.743 51.006 41.681 51.382.181.004.36.006.541.006 19.799 0 33.226-25.802 42.726-48.36 13.48-32.011 17.011-60.593 20.426-88.234 4.808-38.917 9.349-75.675 40.629-121.689 67.387-99.14 26.189-219.536-55.489-245.719zm38.947 234.475c-33.996 50.01-39.05 90.919-43.938 130.481-3.397 27.497-6.606 53.469-19.009 82.922C356.407 490.816 347.873 492 346.794 492h-.032c-.385-.009-9.586-.655-23.375-38.274-6.02-16.412-10.069-36.816-13.985-56.548-4.396-22.15-8.548-43.073-15.392-59.404-8.757-20.895-21.485-31.487-37.836-31.487l-.275.001c-16.419.115-29.195 10.789-37.97 31.727-6.841 16.322-10.992 37.181-15.385 59.263-3.915 19.672-7.962 40.015-13.984 56.45-13.764 37.538-22.987 38.184-23.373 38.193-.896.016-9.53-.804-24.372-36.041-13.007-30.889-16.073-56.899-19.318-84.438-4.547-38.579-9.249-78.471-43.561-128.87-60.045-88.231-23.851-193.445 44.985-215.526 59.86-19.195 109.263 5.74 127.724 17.353a9.996 9.996 0 0010.646.001c18.468-11.61 67.883-36.543 127.727-17.353 70.199 22.501 103.883 128.877 45.052 215.427z" data-original="#000000" class="active-path" data-old_color="#000000" fill="#00A8BC"/><path d="M437.074 103.527c-3.248-9.429-7.553-18.105-12.794-25.788-3.113-4.564-9.334-5.739-13.896-2.626-4.563 3.112-5.738 9.333-2.625 13.896 4.237 6.211 7.738 13.288 10.406 21.032 9.965 28.924 7.365 62.673-7.134 92.594-2.409 4.97-.332 10.951 4.638 13.36 4.971 2.409 10.952.332 13.36-4.638 16.788-34.643 19.721-73.946 8.045-107.83zm-217.446 33.27l-40.257-13.419-13.419-40.257a10.001 10.001 0 00-18.974 0l-13.419 40.257-40.257 13.419a10.001 10.001 0 000 18.974l40.257 13.419 13.419 40.257a10.001 10.001 0 0018.974 0l13.419-40.257 40.257-13.419a10.001 10.001 0 000-18.974zm-51.325 15a9.998 9.998 0 00-6.325 6.325l-5.513 16.54-5.513-16.54a9.998 9.998 0 00-6.325-6.325l-16.54-5.513 16.54-5.513a9.998 9.998 0 006.325-6.325l5.513-16.54 5.513 16.54a9.998 9.998 0 006.325 6.325l16.54 5.513-16.54 5.513z" data-original="#000000" class="active-path" data-old_color="#000000" fill="#00A8BC"/></svg>