<svg xmlns="http://www.w3.org/2000/svg" xmlns:xlink="http://www.w3.org/1999/xlink" version="1.1" id="Capa_1" x="0" y="0" viewBox="0 0 60.141 60.141" xml:space="preserve" width="512" height="512"><g fill="#3dbfc7"><path d="M53.455 13.354C47.903 4.073 39.439-.763 30.184.098c-6.678.622-11.113 2.919-13.18 6.829-3.506 6.627 1.196 15.285 1.398 15.65l.281.511.583.006c.015 0 .244.009.619.078a9.927 9.927 0 00-1.305 4.922v10c0 8.822-7.178 16-16 16a1 1 0 100 2c9.768 0 17.728-7.827 17.977-17.537a10.538 10.538 0 018.939-2.741c.421 2.08.704 4.489.782 7.305.197 7.116 1.985 12.114 5.315 14.857a9.32 9.32 0 005.921 2.162c.397 0 .686-.028.83-.047l.096.001c4.688-.001 8.299-1.478 10.73-4.392 4.397-5.269 3.453-13.474 3.157-15.396 3.838-6.261 2.637-17.741-2.872-26.952zm-27.15 14.377c-1.883 1.069-3.901 2.901-5.726 6.004v-5.641c0-1.576.464-3.043 1.254-4.283 1.33.619 2.981 1.776 4.472 3.92zm-4.151 7.279c1.679-2.946 3.508-4.625 5.186-5.564.624 1.189 1.19 2.6 1.658 4.277a12.499 12.499 0 00-6.844 1.287zm29.48 19.412c-2.034 2.438-5.128 3.673-9.197 3.673l-.152-.001-.167.013c-.112.017-2.767.402-5.289-1.7-2.802-2.335-4.376-6.947-4.552-13.34-.069-2.501-.293-4.71-.63-6.674a11.445 11.445 0 013.932 2.521v3.636a1 1 0 102 0v-3h3a1 1 0 100-2h-3.53a13.39 13.39 0 00-5.862-3.416c-.522-2.169-1.197-3.978-1.961-5.486.216-.063.429-.118.633-.16 2.218-.457 3.971.181 4.416.625l2.829 2.83a.997.997 0 001.414 0 .999.999 0 000-1.414l-2.121-2.122 2.121-2.121a.999.999 0 10-1.414-1.414l-2.244 2.244c-1.241-.67-3.226-1.036-5.405-.586-.4.083-.821.195-1.258.344-1.604-2.44-3.433-3.852-5.018-4.665a7.96 7.96 0 015.399-2.114h4a1 1 0 100-2h-3v-3a1 1 0 10-2 0v3.051a9.973 9.973 0 00-6.416 3.265 9.1 9.1 0 00-1.246-.262c-.871-1.794-3.73-8.411-1.144-13.292C20.508 4.585 24.41 2.644 30.37 2.09c8.451-.786 16.228 3.695 21.369 12.29 5.241 8.764 6.404 19.58 2.705 25.161l-.226.339.076.4c.017.09 1.643 8.987-2.66 14.142z"/><path d="M52.667 32.079a1.013 1.013 0 00-.286-.252c-.003-.001-.004-.004-.006-.006-2.083-1.203-3.566-3.119-4.176-5.395-.61-2.276-.283-4.678.92-6.761.012-.02.011-.043.021-.063.047-.096.088-.197.103-.305a.998.998 0 00-1.251-1.097 8.942 8.942 0 01-6.829-.898 8.94 8.94 0 01-4.191-5.467 1 1 0 00-1.932.518 10.932 10.932 0 005.123 6.682 10.926 10.926 0 005.479 1.477c.306 0 .613-.035.92-.06a10.768 10.768 0 00-.295 6.493 10.768 10.768 0 003.493 5.469c-4.709 2.228-7.316 7.574-5.921 12.782a.998.998 0 001.225.707 1 1 0 00.707-1.225c-1.284-4.794 1.57-9.739 6.363-11.023.003-.001.004-.003.007-.003a1.026 1.026 0 00.375-.203.98.98 0 00.226-.26c.012-.02.011-.043.021-.063.047-.096.088-.197.103-.305a1.001 1.001 0 00-.199-.742z"/></g></svg>