<svg xmlns="http://www.w3.org/2000/svg" xmlns:xlink="http://www.w3.org/1999/xlink" version="1.1" id="Capa_1" x="0" y="0" viewBox="0 0 511.999 511.999" xml:space="preserve" width="512" height="512"><path d="M273.869 346.504c-6.576 0-13.003 1.885-18.542 5.329-5.539-3.444-11.966-5.329-18.542-5.329-19.593 0-35.534 16.235-35.534 36.19 0 11.32 8.173 24.948 24.986 41.666 11.349 11.284 22.542 19.872 23.013 20.232a10 10 0 006.079 2.058 9.997 9.997 0 006.079-2.058c.471-.36 11.664-8.947 23.013-20.232 16.813-16.718 24.986-30.347 24.986-41.666-.003-19.956-15.944-36.19-35.538-36.19zm-18.546 77.337c-17.403-14.424-34.054-32.945-34.054-41.147 0-8.916 6.961-16.171 15.516-16.171 4.258 0 8.231 1.765 11.185 4.968a10.01 10.01 0 0014.716 0c2.955-3.203 6.928-4.968 11.186-4.968 8.553 0 15.514 7.255 15.514 16.171-.001 8.182-16.658 26.708-34.063 41.147z" data-original="#000000" class="active-path" data-old_color="#000000" fill="#F35E53"/><path d="M242.07 269.678c-6.493-5.6-14.233-8.041-21.811-6.87-47.042 7.269-69.469 44.04-70.401 45.603-2.832 4.747-1.279 10.892 3.468 13.724 4.748 2.834 10.893 1.278 13.724-3.468.18-.301 18.429-30.227 56.266-36.074 2.27-.344 4.531 1.257 5.68 2.246 3.538 3.053 5.994 8.126 5.97 12.337-.023 4.044-2.585 7.608-6.375 8.867-18.658 6.204-31.509 13.571-38.198 21.895l-38.326 47.701c-3.953 4.921-9.41 7.644-14.938 7.456-2.384-.079-4.074-.848-5.65-2.569-9.628-10.521-7.722-44.806-6.908-59.446.126-2.262.239-4.309.315-6.082 3.923-90.44 39.19-116.201 94.824-128.451l3.443-.759c5.399-1.189 8.811-6.529 7.621-11.928-1.189-5.399-6.533-8.813-11.928-7.621l-3.442.759c-36.981 8.143-62.337 22.118-79.796 43.979-18.937 23.713-28.699 56.491-30.722 103.154-.074 1.702-.184 3.666-.304 5.837-1.543 27.74-2.006 58.629 12.126 74.072 5.193 5.674 12.025 8.807 19.757 9.063a34.792 34.792 0 003.302-.041c.247 16.297 3.953 31.953 11.044 46.555a10.008 10.008 0 009.01 5.639 9.95 9.95 0 004.365-1.008c4.975-2.414 7.048-8.403 4.632-13.376-6.01-12.375-9.057-25.681-9.057-39.552v-5.554a41.91 41.91 0 007.908-7.588l38.325-47.7c4.06-5.052 14.597-10.678 28.91-15.438 11.935-3.97 20.003-15.121 20.077-27.749.061-10.114-4.889-20.694-12.911-27.613zm-57.418 194.039l-.259-.274c-3.778-4.036-10.113-4.245-14.148-.467-4.036 3.778-4.245 10.112-.467 14.148l.429.452a9.977 9.977 0 007.224 3.08 9.973 9.973 0 006.928-2.787c3.989-3.827 4.121-10.163.293-14.152zm159.57-277.741c-14.537-9.255-30.463-15.911-47.331-19.783-5.387-1.235-10.759 2.129-11.995 7.517-1.237 5.388 2.128 10.758 7.516 11.994 14.638 3.36 28.453 9.134 41.06 17.159a9.958 9.958 0 005.365 1.566c3.308 0 6.545-1.639 8.453-4.635 2.968-4.662 1.595-10.849-3.068-13.818zm28.035 23.104l-.529-.552c-3.839-3.978-10.176-4.089-14.153-.249-3.978 3.839-4.089 10.176-.249 14.153l.448.465a9.977 9.977 0 007.244 3.101c2.481 0 4.97-.918 6.906-2.768 3.999-3.815 4.15-10.151.333-14.15zm22.415 30.199c-2.719-4.815-8.823-6.513-13.637-3.794-4.815 2.719-6.512 8.823-3.794 13.637 10.1 17.884 10.902 38.853 10.902 64.407v30.503c0 35.219-8.067 84.687-46.493 120.351-7.04 6.533-20.565 13.147-39.117 19.132-.659.179-1.311.353-1.961.526-4.399.897-8.905-.072-12.597-2.768-4.171-3.047-6.556-7.758-6.544-12.926.016-7.118 4.62-13.261 11.458-15.285 17.768-5.261 30.534-11.416 37.943-18.292 26.426-24.527 25.059-62.489 23.852-95.982-.26-7.22-.505-14.037-.505-20.721 0-.715-.078-1.41-.22-2.083 2.066-3.832 3.442-7.803 4.114-11.943 3.027-18.673-9.094-34.456-18.833-47.138-3.85-5.014-9.667-12.589-9.722-15.277-.001-5.527-4.482-10.008-10.009-10.008S309.5 236.1 309.5 241.627c0 9.415 6.425 17.782 13.864 27.468 7.778 10.128 16.593 21.606 14.95 31.743-1.068 6.589-6.646 13.335-16.578 20.049-4.579 3.096-5.782 9.319-2.687 13.898a10 10 0 008.301 4.404c1.93 0 3.879-.557 5.597-1.719.555-.375 1.084-.756 1.622-1.134l.112 3.172c1.104 30.627 2.244 62.296-17.464 80.589-4.984 4.626-15.642 9.517-30.008 13.771-15.393 4.558-25.757 18.397-25.793 34.435-.019 8.188 2.643 15.861 7.486 22.087-11.469 1.541-18.362 1.593-18.474 1.593-14.723 0-29.336-3.606-42.258-10.428-4.888-2.58-10.942-.71-13.525 4.18-2.58 4.889-.71 10.943 4.179 13.525 15.792 8.336 33.636 12.742 51.604 12.742.948 0 23.017-.102 54.971-8.527a38.206 38.206 0 002.028-.542l.62-.166c.052-.014.1-.035.152-.05.09-.028.182-.047.272-.076 21.728-6.991 37.474-14.925 46.802-23.582 34.603-32.115 52.894-78.806 52.894-135.024v-30.503c-.005-27.558-1.019-52.164-13.495-74.253zM255.425 0a77.186 77.186 0 00-32.287 7.056c-18.108-12.243-42.902-8.162-56.071 9.551-13.541 18.217-9.737 44.055 8.478 57.595.712.53 1.472.946 2.259 1.26-.021.738-.056 1.471-.056 2.214v12.303c0 42.831 34.846 77.677 77.677 77.677s77.677-34.846 77.677-77.677V77.677C333.101 34.846 298.256 0 255.425 0zm-72.292 28.55c4.794-6.451 12.592-9.379 20.04-8.299a77.893 77.893 0 00-21.105 31.927c-4.349-7.143-4.223-16.513 1.065-23.628zm72.292 119.087c-29.61 0-54.067-22.438-57.287-51.203 15.057-1.132 47.653-5.803 69.281-25.037 14.957 16.782 35.408 22.58 45.364 24.488-2.969 29.029-27.559 51.752-57.358 51.752zm21.55-96.983a10.01 10.01 0 00-16.698-.913c-14.993 20.276-47.562 25.348-62.478 26.615.708-31.183 26.276-56.337 57.625-56.337 31.052 0 56.436 24.679 57.601 55.452-9.695-2.37-26.649-8.68-36.05-24.817z" data-original="#000000" class="active-path" data-old_color="#000000" fill="#F35E53"/></svg>