<svg xmlns="http://www.w3.org/2000/svg" xmlns:xlink="http://www.w3.org/1999/xlink" version="1.1" id="Capa_1" x="0" y="0" viewBox="0 0 401.89 401.89" xml:space="preserve" width="512" height="512"><path id="XMLID_1830_" d="M206.815 326.086c4.971 0 9 4.029 9 9s-4.029 9-9 9H195.39c-4.971 0-9-4.029-9-9s4.029-9 9-9h11.425zm34.287-158.437a9 9 0 006.397-15.331c-19.426-19.636-23.516-43.615-23.525-60.272a8.999 8.999 0 00-9-8.995h-.005a9 9 0 00-8.995 9.005c.017 28.315 10.22 54.213 28.729 72.923a8.975 8.975 0 006.399 2.67zm-30.584 135.463h-18.829c-12.458 0-22.594-10.135-22.594-22.593 0-12.459 10.136-22.595 22.594-22.595h18.829c12.458 0 22.594 10.136 22.594 22.594s-10.135 22.594-22.594 22.594zm4.594-22.593c0-2.49-2.104-4.595-4.594-4.595h-18.829c-2.49 0-4.594 2.104-4.594 4.594s2.104 4.594 4.594 4.594h18.829c2.49 0 4.594-2.104 4.594-4.593zm-.527-39.226h-26.964c-15.697 0-28.467-12.771-28.467-28.467s12.771-28.467 28.467-28.467h26.964c15.696 0 28.466 12.77 28.466 28.466 0 15.698-12.77 28.468-28.466 28.468zm10.466-28.467c0-5.771-4.695-10.467-10.466-10.467h-26.964c-5.771 0-10.467 4.695-10.467 10.466 0 5.772 4.696 10.468 10.467 10.468h26.964c5.771 0 10.466-4.695 10.466-10.467zm76.355-91.259a40.5 40.5 0 003.207-6.558 9 9 0 00-5.219-11.608c-4.646-1.765-9.844.572-11.609 5.22a23.38 23.38 0 01-2.529 4.825 8.918 8.918 0 00-.448.639c-3.75 5.186-9.695 9.406-16.821 11.778a9 9 0 00-5.697 11.382c1.57 4.716 6.667 7.267 11.381 5.696a55.792 55.792 0 009.338-4.084c-.975 22.718-3.593 44.948-6.144 66.605-5.501 46.708-11.189 95.006-.08 147.034a9.003 9.003 0 0010.681 6.923 9 9 0 006.922-10.682c-10.488-49.118-5.222-93.831.353-141.17 3.257-27.646 6.62-56.205 6.665-86zm13.511 204.729c-4.746-1.473-9.789 1.189-11.258 5.938a9 9 0 005.938 11.258c20.761 6.424 25.255 12.581 25.255 13.761 0 1.534-6.227 9.286-34.99 16.467-26.27 6.559-61.343 10.171-98.759 10.171-37.415 0-72.488-3.612-98.758-10.171-28.764-7.181-34.991-14.933-34.991-16.467 0-1.18 4.494-7.337 25.254-13.761a9 9 0 005.938-11.258c-1.469-4.749-6.511-7.408-11.258-5.938-25.171 7.788-37.934 18.203-37.934 30.956 0 14.459 16.362 25.875 48.63 33.931 27.655 6.904 64.277 10.707 103.119 10.707 38.843 0 75.465-3.803 103.12-10.707 32.269-8.056 48.63-19.472 48.63-33.931-.001-12.753-12.764-23.168-37.936-30.956zM154.776 165.047a8.973 8.973 0 006.329 2.602 8.976 8.976 0 006.399-2.671c18.508-18.709 28.71-44.606 28.727-72.922a9 9 0 00-8.995-9.005h-.005a9 9 0 00-9 8.995c-.01 16.658-4.099 40.638-23.524 60.273a9 9 0 00.069 12.728zM340.37 53.463c-11.763-11.906-28.442-19.015-44.616-19.015h-25.326c-7.787 0-19.153-10.609-22.71-24.813l-.708-2.823a9 9 0 00-17.459 4.381l.708 2.819c5.398 21.553 23.043 38.436 40.17 38.436h25.326c11.294 0 23.484 5.236 31.812 13.665 11.869 12.014 15.195 24.064 12.271 44.464L312.97 298.002c-.706 4.921 2.711 9.48 7.631 10.187a9.003 9.003 0 0010.187-7.632l26.867-187.425c3.699-25.816-1.47-43.661-17.285-59.669zm-200.457 83.781a9 9 0 00-5.696-11.382c-7.126-2.373-13.072-6.595-16.822-11.78a9.377 9.377 0 00-.445-.635 23.434 23.434 0 01-2.531-4.828c-1.764-4.646-6.962-6.983-11.609-5.219s-6.983 6.962-5.218 11.609a40.393 40.393 0 003.206 6.556c.045 29.794 3.409 58.354 6.665 85.999 5.575 47.339 10.841 92.054.353 141.173a9.002 9.002 0 008.81 10.882 9.005 9.005 0 008.793-7.123c11.109-52.029 5.421-100.328-.08-147.037-2.551-21.657-5.168-43.885-6.144-66.603a55.771 55.771 0 009.336 4.084c4.716 1.573 9.812-.979 11.382-5.696zM80.003 308.28a9.001 9.001 0 008.921-10.279l-26.87-187.424c-2.923-20.399.403-32.45 12.271-44.464 8.329-8.43 20.52-13.666 31.814-13.666h25.324c17.127 0 34.773-16.883 40.17-38.43l.709-2.823c1.21-4.821-1.716-9.711-6.537-10.921-4.819-1.215-9.71 1.715-10.921 6.536l-.71 2.829c-3.556 14.199-14.923 24.809-22.71 24.809H106.14c-16.174 0-32.853 7.108-44.619 19.015-15.813 16.009-20.982 33.854-17.284 59.669l26.869 187.425c.642 4.488 4.492 7.724 8.897 7.724z" fill="#00a8bc"/></svg>