<svg xmlns="http://www.w3.org/2000/svg" xmlns:xlink="http://www.w3.org/1999/xlink" version="1.1" id="Layer_1" x="0" y="0" viewBox="0 0 512 512" xml:space="preserve" width="512" height="512"><g fill="#00a8bc"><path d="M121.361 190.3c-5.138-2.88-11.639-1.053-14.523 4.085l-.25.45c-2.848 5.158-.975 11.647 4.184 14.494a10.67 10.67 0 0014.495-4.184l.179-.322c2.881-5.139 1.053-11.64-4.085-14.523z"/><path d="M462.644 224.163a212.113 212.113 0 00-27.441-62.617c-20.409-31.521-48.606-57.008-81.856-74.079.954-2.268 2.85-4.736 5.574-8.137 3.04-3.795 6.485-8.096 9.201-13.629 3.856-7.855 5.162-20.89-1.084-30.946-3.786-6.095-11.71-13.373-27.956-13.422l-.598-.001c-45.975 0-69.111 16.401-80.742 32.423a37.17 37.17 0 00-1.74-.045c-.586 0-1.165.017-1.744.045-11.632-16.023-34.763-32.423-80.74-32.423l-.597.001c-16.252.049-24.175 7.326-27.961 13.423-6.245 10.056-4.936 23.091-1.08 30.944 2.715 5.532 6.159 9.833 9.198 13.628 2.744 3.425 4.648 5.904 5.594 8.185-.995.478-1.807.88-2.425 1.208-53.96 28.592-92.17 78.035-106.886 135.441C21.803 226.203 0 249.262 0 277.334c0 28.074 21.809 51.135 49.374 53.17C73.059 422.497 156.717 490.669 256 490.669s182.941-68.172 206.628-160.164C490.191 328.469 512 305.407 512 277.332c0-28.069-21.801-51.126-49.356-53.169zM42.728 282.175a206.256 206.256 0 00.175 5.034c.022.502.042 1.004.067 1.505.078 1.462.172 2.924.278 4.385.052.693.112 1.385.17 2.077.071.863.148 1.724.23 2.586.073.765.147 1.529.228 2.29.099.925.207 1.849.318 2.772.13 1.088.269 2.172.415 3.254.095.709.186 1.418.289 2.125-13.566-3.71-23.564-16.145-23.564-30.871 0-14.725 9.999-27.159 23.564-30.87l-.013.086a243.298 243.298 0 00-.496 3.642c-.006.058-.015.115-.022.174a194.62 194.62 0 00-.432 3.673l-.018.158a220.14 220.14 0 00-.365 3.661l-.018.195a201.312 201.312 0 00-.291 3.571c-.008.101-.017.203-.022.304a194.306 194.306 0 00-.217 3.431l-.027.445a210.179 210.179 0 00-.149 3.282c-.007.194-.018.387-.025.581a204.475 204.475 0 00-.084 3.139c-.006.238-.015.476-.019.714a210.542 210.542 0 00-.035 3.815c0 1.614.026 3.228.063 4.842zM338.489 42.667l.529.001c3.575.011 8.195.6 9.896 3.342 1.845 2.971 1.004 8.356.057 10.29-1.683 3.426-4.121 6.471-6.701 9.693-5.138 6.417-10.964 13.69-10.964 24.637 0 1.449.109 2.829.297 4.156.058.651.17 1.293.342 1.918 1.642 7.707 6.201 13.411 10.324 18.56 2.581 3.223 5.019 6.267 6.701 9.693.949 1.934 1.791 7.319-.055 10.29-1.704 2.744-6.324 3.333-9.897 3.344l-.519.001c-27.246 0-47.57-6.537-59.615-19.023 8.541-6.768 14.036-17.221 14.036-28.939 0-11.719-5.496-22.173-14.038-28.941 12.042-12.487 32.36-19.022 59.607-19.022zm-82.487 32.38c8.593 0 15.582 6.99 15.582 15.583s-6.99 15.583-15.582 15.583-15.583-6.991-15.583-15.583c0-8.593 6.991-15.583 15.583-15.583zm-92.917-29.035c1.704-2.744 6.325-3.333 9.9-3.343 27.478-.113 48.004 6.446 60.134 19.023-8.54 6.767-14.035 17.22-14.035 28.938 0 11.717 5.493 22.169 14.033 28.936-12.126 12.563-32.642 19.091-60.131 19.024-3.577-.011-8.198-.601-9.9-3.344-1.845-2.972-1.004-8.355-.054-10.29 1.681-3.427 4.12-6.471 6.7-9.693 5.14-6.416 10.964-13.688 10.964-24.634 0-10.947-5.824-18.221-10.964-24.637-2.581-3.223-5.019-6.266-6.701-9.693-.95-1.934-1.792-7.317.054-10.287zm284.848 236.379c-.006.227-.019.452-.025.68-.044 1.466-.098 2.93-.175 4.394-.011.2-.027.397-.037.595a195.421 195.421 0 01-.294 4.463c-.017.21-.038.418-.057.627-.12 1.459-.251 2.919-.405 4.376-.031.301-.069.6-.102.899a187.597 187.597 0 01-.481 4.03c-.059.447-.125.891-.188 1.337-.16 1.168-.328 2.335-.511 3.5-.1.634-.208 1.264-.315 1.895-.158.947-.319 1.892-.491 2.838-.154.842-.318 1.679-.483 2.516-.139.704-.276 1.407-.422 2.109C425.756 403.724 348.399 469.334 256 469.334c-92.507 0-169.941-65.762-188.012-152.991-.138-.661-.262-1.325-.391-1.987-.172-.875-.346-1.75-.506-2.629a182.036 182.036 0 01-.514-3.027c-.093-.56-.192-1.118-.279-1.68-.21-1.353-.401-2.708-.582-4.066-.033-.244-.07-.486-.103-.731a193.541 193.541 0 01-1.612-24.886c0-1.999.042-3.992.104-5.981.02-.661.051-1.323.078-1.983.057-1.343.125-2.685.208-4.023.046-.753.093-1.505.148-2.257.101-1.365.222-2.727.351-4.085.061-.635.11-1.268.176-1.902.196-1.856.421-3.706.669-5.549.102-.765.222-1.528.334-2.29a181.264 181.264 0 011.679-9.709c.14-.699.273-1.398.421-2.095 9.628-45.576 35.56-86.155 73.169-114.128-1.434 7.257-.845 15.972 3.624 23.17.158.256.335.516.511.777a170.883 170.883 0 00-19.864 19.921c-3.8 4.503-3.229 11.233 1.274 15.032a10.621 10.621 0 006.874 2.514c3.034 0 6.048-1.288 8.157-3.788a149.397 149.397 0 0122.706-21.767c2.492.463 5.249.729 8.3.737l.59.001c45.977 0 69.115-16.401 80.748-32.425.578.027 1.16.045 1.745.045.583 0 1.164-.017 1.742-.045 11.63 16.023 34.763 32.425 80.749 32.425l.59-.001c16.249-.05 24.171-7.327 27.956-13.424 4.462-7.183 5.057-15.879 3.635-23.129 43.247 32.369 71.445 82.06 76.503 136.341.021.225.044.451.064.677.082.925.158 1.851.228 2.778a191.262 191.262 0 01.301 4.945 176.705 176.705 0 01.172 4.748c.034 1.49.059 2.98.059 4.472a202.823 202.823 0 01-.069 5.052zm19.17 25.812c.102-.707.193-1.417.289-2.125.146-1.077.284-2.157.413-3.239.111-.93.222-1.863.32-2.795a228.379 228.379 0 00.459-4.877c.059-.688.118-1.375.169-2.065.109-1.462.202-2.925.279-4.389.027-.499.045-1.001.068-1.501a217.54 217.54 0 00.176-5.037c.035-1.614.061-3.228.061-4.843 0-10.391-.75-20.703-2.226-30.869 13.561 3.712 23.557 16.145 23.557 30.869-.003 14.727-10.001 27.161-23.565 30.871z"/><path d="M218.054 289.678c-4.99-18.62-21.937-31.623-41.213-31.623-19.274 0-36.222 13.004-41.213 31.623-1.525 5.691 1.851 11.54 7.542 13.065 5.69 1.524 11.54-1.851 13.065-7.542 2.496-9.31 10.969-15.812 20.605-15.812 9.637 0 18.111 6.502 20.605 15.812 1.278 4.766 5.588 7.908 10.297 7.908.913 0 1.844-.118 2.768-.366 5.694-1.525 9.069-7.373 7.544-13.065zm117.106-31.623c-19.275 0-36.222 13.004-41.214 31.623-1.525 5.691 1.852 11.54 7.542 13.065 5.69 1.524 11.54-1.851 13.065-7.542 2.496-9.31 10.969-15.812 20.606-15.812s18.111 6.502 20.605 15.812c1.277 4.765 5.586 7.908 10.297 7.908.914 0 1.843-.118 2.768-.366 5.691-1.525 9.067-7.375 7.542-13.065-4.989-18.618-21.935-31.623-41.211-31.623zm-45.489 106.468c-5.693-1.523-11.54 1.851-13.065 7.542-2.496 9.31-10.969 15.812-20.605 15.812-9.638 0-18.112-6.502-20.605-15.812-1.525-5.691-7.376-9.067-13.065-7.542-5.691 1.525-9.067 7.374-7.542 13.065 4.99 18.62 21.936 31.623 41.213 31.623 19.274 0 36.222-13.004 41.213-31.623 1.523-5.691-1.854-11.541-7.544-13.065z"/></g></svg>