<svg xmlns="http://www.w3.org/2000/svg" xmlns:xlink="http://www.w3.org/1999/xlink" version="1.1" id="Capa_1" x="0" y="0" viewBox="0 0 465 465" xml:space="preserve" width="512" height="512"><g fill="#00a8bc"><path d="M200.307 226.933A7.5 7.5 0 00189.7 237.54l8.431 8.431c1.465 1.464 3.385 2.196 5.304 2.196s3.839-.732 5.304-2.196a7.5 7.5 0 000-10.607l-8.432-8.431zm43.412-44.916a7.5 7.5 0 00-10.607 10.607l9.183 9.183c1.465 1.464 3.385 2.196 5.304 2.196s3.839-.732 5.304-2.196a7.5 7.5 0 000-10.607l-9.184-9.183zm-87.576 89.08a7.5 7.5 0 00-10.607 10.607l8.431 8.431c1.465 1.464 3.385 2.196 5.304 2.196s3.839-.732 5.304-2.196a7.5 7.5 0 000-10.607l-8.432-8.431zM462.552 82.129L382.619 2.196a7.5 7.5 0 00-10.607 10.607l17.27 17.269-44.518 44.517a7.5 7.5 0 0010.607 10.607l44.517-44.518L424.07 64.86l-44.517 44.517a7.5 7.5 0 1010.608 10.607l44.516-44.517 17.27 17.27a7.502 7.502 0 0010.607 0 7.503 7.503 0 00-.002-10.608zm-173.917 56.477a7.5 7.5 0 00-10.607 10.607l8.431 8.431c1.465 1.464 3.385 2.196 5.304 2.196s3.839-.732 5.304-2.196a7.5 7.5 0 000-10.607l-8.432-8.431z"/><path d="M392.334 153.978l-.063-.063-.063-.063-81.346-81.346a.807.807 0 01-.029-.03.864.864 0 01-.03-.029L288.26 49.904a7.5 7.5 0 00-10.607 10.607l17.27 17.269L79.407 293.295a7.502 7.502 0 000 10.608l22.375 22.373-31.806 31.805a7.5 7.5 0 000 10.607l7.99 7.989-75.52 75.519A7.5 7.5 0 007.751 465a7.481 7.481 0 005.304-2.196l75.519-75.52 7.487 7.488a7.502 7.502 0 0010.608 0l31.804-31.806 22.374 22.375a7.502 7.502 0 0010.608 0L386.97 169.825l17.269 17.27a7.5 7.5 0 0010.607-10.607l-22.512-22.51zM166.149 369.431l-22.374-22.375a7.502 7.502 0 00-10.608.001l-31.804 31.805-7.487-7.488-7.99-7.989 31.806-31.805a7.502 7.502 0 00-.001-10.608l-22.374-22.373L305.529 88.386l70.831 70.832-210.211 210.213z"/></g></svg>