<svg xmlns="http://www.w3.org/2000/svg" xmlns:xlink="http://www.w3.org/1999/xlink" version="1.1" id="Capa_1" x="0" y="0" width="512" height="512" viewBox="0 0 162.202 162.202" xml:space="preserve"><path d="M145.716 88.858c.036 0 0 2.339-1.954 4.409-1.419 1.491-3.398 2.411-5.913 2.733.006.146.024.329.055.549l.104 5.79c-.085.792-.438 2.734-2.618 4.293.396 1.571.335 4.062-1.973 7.295-1.169 1.571-1.65 2.21-1.157 3.97.433 2.303 1.34 9-2.441 11.716-1.407 1.291-5.986 4.226-17.641 2.765l-1.735-.244c-5.078-.767-9.518-1.113-12.343 2.424-3.939 7.611-10.918 21.714-11.493 25.051a3.11 3.11 0 01-3.06 2.594c-.177 0-.356-.012-.524-.036a3.126 3.126 0 01-2.558-3.593c.898-5.297 10.525-23.76 12.44-27.407 5.597-7.13 13.646-5.906 18.463-5.188l1.577.226c9.858 1.181 12.641-1.17 12.671-1.176.214-.268.329-.329.621-.499.262-.47.335-3.179-.042-5.213-1.255-4.433.81-7.203 1.924-8.701.975-1.364 1.193-2.095 1.212-2.375-1.455-2.21-.944-4.292.17-5.431a2.924 2.924 0 011.23-.768 4.245 4.245 0 001.054-.493L131.687 97c-.292-2.095.079-4.019 1.126-5.383 1.029-1.327 2.309-1.632 2.808-1.687 1.899-.049 3.1-.384 3.617-.932 0-.146.273-.682.292-.847-.243-1.264-4.067-8.829-7.489-14.852-3.41-6.546-1.054-11.417.511-14.641.493-1.02 1.005-2.077 1.06-2.691 1.718-17.795-5.182-27.611-11.387-34.164C110.101 8.972 94.628 6.229 83.612 6.229h-.505c-28.239.204-38.812 9.383-46.509 17.975-16.766 18.712-13.734 34.681-13.603 35.359.387 8.382 10.543 23.413 14.434 28.547 12.556 18.035 6.54 32.138 6.278 32.734-.703 1.571-2.563 2.29-4.107 1.584-1.574-.683-2.283-2.521-1.598-4.092.213-.512 4.746-11.68-5.611-26.562-1.477-1.948-15.101-20.228-15.564-31.438-.101-.262-3.891-19.065 15.135-40.292C41.177 9.764 53.739.21 83.059 0c12.501.131 29.837 2.874 43.695 17.527 7.118 7.505 15.034 18.736 13.08 39.044-.165 1.726-.92 3.294-1.669 4.807-1.37 2.832-2.545 5.276-.646 8.948 8.605 15.123 8.306 17.601 8.197 18.532zM81.844 56.516c-2.189 0-3.885 1.495-6.491 3.927-2.408 2.244-5.407 5.051-9.529 6.823-.21.091-.436.155-.655.244-.329 3.042-2.213 12.799-13.156 17.893a3.102 3.102 0 01-4.141-1.507 3.117 3.117 0 011.51-4.141c5.779-2.694 8.092-7.158 9.015-10.184-2.226.457-4.439.712-6.546.712h-.006c-6.26 0-11.351-2.003-14.724-5.806-3.626-4.083-5.024-9.9-4.138-17.278C35.084 29.504 54.082 14.92 77.166 13.28c23.264-1.571 41.872 8.324 44.155 23.102.884 5.718-.183 10.37-3.166 13.841-5.553 6.485-17.299 8.488-36.258 6.293h-.053zm.773-6.204c5.057.594 9.483.815 13.393.773.007-.019 0-.037.007-.055.676-2.295 1.521-7.751-.207-9.965-.238-.298-.932-1.224-3.416-1.111-.049.006-.104.006-.135.006a3.117 3.117 0 01-3.114-2.987 3.105 3.105 0 012.98-3.249c4.549-.241 7.271 1.778 8.616 3.504 3.124 4.01 2.454 10.185 1.784 13.457 5.243-.691 8.927-2.207 10.912-4.533 1.76-2.058 2.326-4.944 1.723-8.835-1.607-10.424-15.49-17.997-33.024-17.997a64.99 64.99 0 00-4.521.165c-9.365.66-17.863 3.727-24.548 8.229 1.504.201 3.011.6 4.427 1.415 3.647 2.089 5.73 5.998 6.174 11.609a3.112 3.112 0 01-2.856 3.355c-.088.006-.167.012-.255.012a3.105 3.105 0 01-3.1-2.868c-.274-3.434-1.303-5.684-3.047-6.695-2.902-1.671-7.603-.176-9.542.667-3.054 3.846-5.151 8.123-5.699 12.708-.655 5.529.225 9.7 2.618 12.395 2.725 3.063 6.972 3.712 10.065 3.712 3.641 0 7.724-.898 11.508-2.515 3.124-1.346 5.471-3.529 7.733-5.642 3.231-2.98 6.586-6.11 11.524-5.555z" fill="#00a8bc"/></svg>