<?xml version="1.0" encoding="iso-8859-1"?>
<!-- Generator: Adobe Illustrator 19.0.0, SVG Export Plug-In . SVG Version: 6.00 Build 0)  -->
<svg xmlns="http://www.w3.org/2000/svg" xmlns:xlink="http://www.w3.org/1999/xlink" version="1.1" id="Layer_1" x="0px" y="0px" viewBox="0 0 480 480" style="enable-background:new 0 0 480 480;" xml:space="preserve" width="512px" height="512px">
<g>
	<g>
		<path d="M402.256,188.424l-78.32-117.368c-6.152-9.216-18.096-13.048-28.44-9.088c-54.784,21-100.648,10.36-123.12,2.144    c-10.544-3.864-22.256-0.048-28.4,9.296l-75.624,114.84c-3.872,5.88-4.968,13.144-3.008,19.92    c1.952,6.76,6.744,12.296,13.144,15.192c53.8,24.352,106.264,32.76,153.08,32.76c71.984,0,130.6-19.888,160.104-32.272    c6.592-2.768,11.552-8.28,13.616-15.12C407.368,201.832,406.256,194.432,402.256,188.424z M389.968,204.112    c-0.4,1.328-1.512,3.736-4.488,4.984c-46.752,19.632-169.616,58.888-300.4-0.312c-2.152-0.976-3.704-2.776-4.368-5.064    c-0.656-2.272-0.288-4.704,1-6.664l75.624-114.84c1.504-2.288,4.032-3.576,6.68-3.576c0.952,0,1.92,0.168,2.864,0.512    c0,0,0,0,0.008,0c24.552,8.976,74.68,20.624,134.336-2.24c3.408-1.296,7.352-0.032,9.392,3.024l78.32,117.368    C390.288,199.328,390.664,201.808,389.968,204.112z" fill="#00a8bc"/>
	</g>
</g>
<g>
	<g>
		<path d="M337.072,140.064c-9.448-15.176-21.912-23.784-37.056-25.576c-27.736-3.296-56.016,18.144-66.944,27.56    c-1.376-2.568-3.072-5.176-5.072-7.824c-11.112-14.616-32.112-29.736-48.04-29.736c-23.44,0-42.496,19.064-42.496,42.504    c0,20.432,14.496,37.528,33.744,41.576c6.624,18.152,20.656,29.68,40.872,33.264c4.888,0.872,9.8,1.36,14.712,1.68    c0.176,0.016,0.352,0.08,0.528,0.08c0.072,0,0.144-0.04,0.216-0.048c2.6,0.152,5.208,0.344,7.8,0.344    c23.208,0,45.832-6.096,64.416-17.672C335.168,184.144,349.12,159.416,337.072,140.064z M179.96,173.496    c-14.608,0-26.496-11.888-26.496-26.504c0-14.616,11.888-26.504,26.496-26.504c8.264,0,25.12,10.016,35.296,23.416    c4.752,6.256,7.008,12.04,6.048,15.496C217.68,172.456,201.16,173.496,179.96,173.496z M291.28,192.64    c-12.296,7.664-26.736,12.432-41.896,14.296c8.544-13.672,7.464-29.304,7.384-30.256c-0.352-4.392-4.128-7.736-8.616-7.336    c-4.408,0.352-7.688,4.208-7.336,8.616c0.024,0.216,1.44,21.192-15.128,29.504c-3.608-0.296-7.224-0.736-10.824-1.376    c-12.048-2.144-20.496-7.664-25.736-16.68c18.792-0.464,41.448-3.664,47.584-25.712c0.408-1.472,0.6-3.008,0.696-4.568    c0.776-0.368,1.536-0.792,2.176-1.424c1.912-1.872,4.768-4.392,8.248-7.128c0.816,0.384,1.68,0.704,2.632,0.792    c19.472,1.832,24.808,22.904,25.032,23.84c0.864,3.672,4.152,6.16,7.776,6.16c0.6,0,1.208-0.064,1.816-0.208    c4.304-1,6.984-5.296,5.984-9.6c-0.264-1.136-5.776-23.552-25.744-32.576c10.368-5.648,22.136-9.856,32.792-8.608    c10.216,1.216,18.512,7.152,25.36,18.152C333.968,165.36,295.688,189.896,291.28,192.64z" fill="#00a8bc"/>
	</g>
</g>
<g>
	<g>
		<path d="M449.992,432H315.056l14-112h88.936c13.232,0,24-10.768,24-24v-16V40V24c0-13.232-10.768-24-24-24h-368    c-13.232,0-24,10.768-24,24v16v240v16c0,13.232,10.768,24,24,24h80.936l14.024,112.208c-3.904,0.528-6.96,3.744-6.96,7.792    c0,4.416,3.576,8,8,8h8h152h144c4.416,0,8,3.592,8,8v8h-296c-4.424,0-8,3.584-8,8c0,4.416,3.576,8,8,8h304c4.424,0,8-3.584,8-8    v-16C473.992,442.768,463.224,432,449.992,432z M41.992,24c0-4.408,3.584-8,8-8h368c4.416,0,8,3.592,8,8v8h-384V24z M41.992,48    h384v224h-384V48z M137.992,304h-88c-4.416,0-8-3.592-8-8v-8h384v8c0,4.408-3.584,8-8,8h-96H137.992z M298.928,432H161.056    l-14-112h165.872L298.928,432z" fill="#00a8bc"/>
	</g>
</g>
<g>
	<g>
		<path d="M229.992,338.336c-20.768,0-37.664,16.896-37.664,37.664s16.896,37.664,37.664,37.664s37.664-16.896,37.664-37.664    S250.76,338.336,229.992,338.336z M229.992,397.664c-11.944,0-21.664-9.72-21.664-21.664c0-11.944,9.72-21.664,21.664-21.664    c11.944,0,21.664,9.72,21.664,21.664C251.656,387.944,241.936,397.664,229.992,397.664z" fill="#00a8bc"/>
	</g>
</g>
<g>
	<g>
		<path d="M101.208,67.624C95.576,62,87.12,60.896,80.384,64.272c-6.664-3.376-15.44-2.072-20.832,3.344    c-3.352,3.352-5.272,8.208-5.272,13.336c0,5.128,1.92,9.992,5.04,13.096l14.136,15.36c1.512,1.656,3.656,2.592,5.888,2.592h2.072    c2.232,0,4.368-0.936,5.88-2.584l13.912-15.128C108.184,87.312,108.184,74.608,101.208,67.624z M89.68,83.232L80.384,93.32    L70.88,82.984c-0.248-0.24-0.6-0.968-0.6-2.024c0-1.048,0.352-1.784,0.592-2.024c0.48-0.48,1.024-0.584,1.408-0.584    c0.376,0,0.92,0.104,1.416,0.6l1.04,1.032c1.504,1.496,3.528,2.336,5.648,2.336c2.496,0.032,4.168-0.84,5.664-2.352l1.024-1.024    c0.776-0.776,2.04-0.784,2.832,0C90.68,79.72,90.68,82.216,89.68,83.232z" fill="#00a8bc"/>
	</g>
</g>
<g>
	<g>
		<path d="M401.992,64h-40c-4.424,0-8,3.584-8,8s3.576,8,8,8h40c4.424,0,8-3.584,8-8S406.416,64,401.992,64z" fill="#00a8bc"/>
	</g>
</g>
<g>
	<g>
		<path d="M401.992,96h-24c-4.424,0-8,3.584-8,8s3.576,8,8,8h24c4.424,0,8-3.584,8-8S406.416,96,401.992,96z" fill="#00a8bc"/>
	</g>
</g>
<g>
	<g>
		<path d="M133.24,468.616l-14.928-32c-1.192-2.552-3.64-4.192-6.4-4.496l-18.28-58.512c-0.608-1.952-1.952-3.456-3.632-4.44V360    c0-13.232-10.768-24-24-24s-24,10.768-24,24v9.208c-1.936,1.144-3.424,2.984-3.856,5.32l-10.816,57.704    c-2.44,0.504-4.56,2.072-5.64,4.384l-14.928,32c-1.16,2.48-0.968,5.376,0.496,7.68c1.456,2.312,4,3.704,6.736,3.704h112    c2.736,0,5.28-1.392,6.752-3.704C134.216,473.992,134.4,471.096,133.24,468.616z M57.992,360c0-4.408,3.584-8,8-8s8,3.592,8,8v8    h-16V360z M52.632,384h27.48l5,16h-35.48L52.632,384z M46.632,416h43.36c0.04,0,0.072-0.024,0.112-0.024L95.112,432h-51.48    L46.632,416z M26.552,464l7.464-16h71.952l7.464,16H26.552z" fill="#00a8bc"/>
	</g>
</g>
<g>
</g>
<g>
</g>
<g>
</g>
<g>
</g>
<g>
</g>
<g>
</g>
<g>
</g>
<g>
</g>
<g>
</g>
<g>
</g>
<g>
</g>
<g>
</g>
<g>
</g>
<g>
</g>
<g>
</g>
</svg>
