<svg xmlns="http://www.w3.org/2000/svg" xmlns:xlink="http://www.w3.org/1999/xlink" version="1.1" id="Layer_1" x="0" y="0" viewBox="0 0 480 480" xml:space="preserve" width="512" height="512"><path d="M402.256 188.424l-78.32-117.368c-6.152-9.216-18.096-13.048-28.44-9.088-54.784 21-100.648 10.36-123.12 2.144-10.544-3.864-22.256-.048-28.4 9.296l-75.624 114.84a24.034 24.034 0 00-3.008 19.92 23.936 23.936 0 0013.144 15.192c53.8 24.352 106.264 32.76 153.08 32.76 71.984 0 130.6-19.888 160.104-32.272a23.804 23.804 0 0013.616-15.12c2.08-6.896.968-14.296-3.032-20.304zm-12.288 15.688c-.4 1.328-1.512 3.736-4.488 4.984-46.752 19.632-169.616 58.888-300.4-.312-2.152-.976-3.704-2.776-4.368-5.064a8.057 8.057 0 011-6.664l75.624-114.84c1.504-2.288 4.032-3.576 6.68-3.576.952 0 1.92.168 2.864.512h.008c24.552 8.976 74.68 20.624 134.336-2.24 3.408-1.296 7.352-.032 9.392 3.024l78.32 117.368a8.034 8.034 0 011.032 6.808z" fill="#00a8bc"/><path d="M337.072 140.064c-9.448-15.176-21.912-23.784-37.056-25.576-27.736-3.296-56.016 18.144-66.944 27.56-1.376-2.568-3.072-5.176-5.072-7.824-11.112-14.616-32.112-29.736-48.04-29.736-23.44 0-42.496 19.064-42.496 42.504 0 20.432 14.496 37.528 33.744 41.576 6.624 18.152 20.656 29.68 40.872 33.264 4.888.872 9.8 1.36 14.712 1.68.176.016.352.08.528.08.072 0 .144-.04.216-.048 2.6.152 5.208.344 7.8.344 23.208 0 45.832-6.096 64.416-17.672 35.416-22.072 49.368-46.8 37.32-66.152zM179.96 173.496c-14.608 0-26.496-11.888-26.496-26.504 0-14.616 11.888-26.504 26.496-26.504 8.264 0 25.12 10.016 35.296 23.416 4.752 6.256 7.008 12.04 6.048 15.496-3.624 13.056-20.144 14.096-41.344 14.096zm111.32 19.144c-12.296 7.664-26.736 12.432-41.896 14.296 8.544-13.672 7.464-29.304 7.384-30.256-.352-4.392-4.128-7.736-8.616-7.336a7.998 7.998 0 00-7.336 8.616c.024.216 1.44 21.192-15.128 29.504-3.608-.296-7.224-.736-10.824-1.376-12.048-2.144-20.496-7.664-25.736-16.68 18.792-.464 41.448-3.664 47.584-25.712.408-1.472.6-3.008.696-4.568.776-.368 1.536-.792 2.176-1.424 1.912-1.872 4.768-4.392 8.248-7.128.816.384 1.68.704 2.632.792 19.472 1.832 24.808 22.904 25.032 23.84.864 3.672 4.152 6.16 7.776 6.16a7.998 7.998 0 007.8-9.808c-.264-1.136-5.776-23.552-25.744-32.576 10.368-5.648 22.136-9.856 32.792-8.608 10.216 1.216 18.512 7.152 25.36 18.152 10.488 16.832-27.792 41.368-32.2 44.112z" fill="#00a8bc"/><path d="M449.992 432H315.056l14-112h88.936c13.232 0 24-10.768 24-24V24c0-13.232-10.768-24-24-24h-368c-13.232 0-24 10.768-24 24v272c0 13.232 10.768 24 24 24h80.936l14.024 112.208c-3.904.528-6.96 3.744-6.96 7.792 0 4.416 3.576 8 8 8h304c4.416 0 8 3.592 8 8v8h-296c-4.424 0-8 3.584-8 8s3.576 8 8 8h304c4.424 0 8-3.584 8-8v-16c0-13.232-10.768-24-24-24zm-408-408c0-4.408 3.584-8 8-8h368c4.416 0 8 3.592 8 8v8h-384v-8zm0 24h384v224h-384V48zm96 256h-88c-4.416 0-8-3.592-8-8v-8h384v8c0 4.408-3.584 8-8 8h-280zm160.936 128H161.056l-14-112h165.872l-14 112z" fill="#00a8bc"/><path d="M229.992 338.336c-20.768 0-37.664 16.896-37.664 37.664s16.896 37.664 37.664 37.664 37.664-16.896 37.664-37.664-16.896-37.664-37.664-37.664zm0 59.328c-11.944 0-21.664-9.72-21.664-21.664s9.72-21.664 21.664-21.664 21.664 9.72 21.664 21.664-9.72 21.664-21.664 21.664zM101.208 67.624C95.576 62 87.12 60.896 80.384 64.272c-6.664-3.376-15.44-2.072-20.832 3.344-3.352 3.352-5.272 8.208-5.272 13.336s1.92 9.992 5.04 13.096l14.136 15.36A7.979 7.979 0 0079.344 112h2.072a7.983 7.983 0 005.88-2.584l13.912-15.128c6.976-6.976 6.976-19.68 0-26.664zM89.68 83.232L80.384 93.32 70.88 82.984c-.248-.24-.6-.968-.6-2.024 0-1.048.352-1.784.592-2.024a1.95 1.95 0 011.408-.584c.376 0 .92.104 1.416.6l1.04 1.032a8 8 0 005.648 2.336c2.496.032 4.168-.84 5.664-2.352l1.024-1.024a2.006 2.006 0 012.832 0c.776.776.776 3.272-.224 4.288zM401.992 64h-40c-4.424 0-8 3.584-8 8s3.576 8 8 8h40c4.424 0 8-3.584 8-8s-3.576-8-8-8zm0 32h-24c-4.424 0-8 3.584-8 8s3.576 8 8 8h24c4.424 0 8-3.584 8-8s-3.576-8-8-8zM133.24 468.616l-14.928-32c-1.192-2.552-3.64-4.192-6.4-4.496l-18.28-58.512c-.608-1.952-1.952-3.456-3.632-4.44V360c0-13.232-10.768-24-24-24s-24 10.768-24 24v9.208c-1.936 1.144-3.424 2.984-3.856 5.32l-10.816 57.704c-2.44.504-4.56 2.072-5.64 4.384l-14.928 32a8 8 0 00.496 7.68A7.95 7.95 0 0013.992 480h112a7.997 7.997 0 007.248-11.384zM57.992 360c0-4.408 3.584-8 8-8s8 3.592 8 8v8h-16v-8zm-5.36 24h27.48l5 16h-35.48l3-16zm-6 32h43.36c.04 0 .072-.024.112-.024L95.112 432h-51.48l3-16zm-20.08 48l7.464-16h71.952l7.464 16h-86.88z" fill="#00a8bc"/></svg>