<svg xmlns="http://www.w3.org/2000/svg" xmlns:xlink="http://www.w3.org/1999/xlink" version="1.1" id="Layer_1" x="0" y="0" viewBox="0 0 512.008 512.008" xml:space="preserve" width="512" height="512"><path d="M417.923 110.721c-10.734-39.914-37-69.858-78.093-89.015-86.765-40.438-144.843-16.867-178.28 10.039-26.938 21.672-48.781 54.632-61.484 92.812-11.188 33.617-14.391 69.148-8.594 95.046 1.203 5.422 6.406 9.07 11.984 8.234 5.812-.875 9.828-6.312 8.953-12.141-.031-.258-.094-.5-.141-.742-9.015-40.241 8.125-122.726 62.656-166.592 41.188-33.133 95.094-35.664 155.89-7.328 35.108 16.367 57.483 41.663 66.499 75.194 14.531 54.086-7.297 121.265-28.188 168.093-23.046 51.703-50.108 90.687-50.374 91.062l-.812 1.172-.484 1.344c-16.391 45.734-37.141 78.203-61.671 96.516-19.328 14.438-40.718 19.359-61.859 14.25-18.406-4.438-36.062-16.531-48.422-33.156-12.078-16.219-17.781-34.844-15.656-51.125.125-.969.109-1.953-.031-2.969-.875-5.812-6.312-9.844-12.141-8.969-4.812.719-8.375 4.578-8.984 9.188-5.938 45.656 31.546 96.031 80.234 107.781 7.172 1.719 14.344 2.594 21.453 2.594 20.203 0 40-6.938 58.172-20.5 27.702-20.688 50.749-56.031 68.515-105.094 4.859-7.125 29.499-44.062 51.39-93.03 14.109-31.593 24.078-61.594 29.641-89.187 7.093-35.157 7.03-66.61-.173-93.477z" fill="#00a8bc"/><path d="M364.345 128.299a3.367 3.367 0 00-.188-.375c-16.562-33.312-39.905-54.539-69.421-63.094-51-14.788-102.03 14.031-107.843 17.469-.172.102-.312.18-.375.227-3.062 1.875-5.125 5.25-5.125 9.109 0 5.891 4.781 10.672 10.672 10.672 2.031 0 3.938-.578 5.547-1.57.469-.281 47.062-28.219 91.187-15.422 23.641 6.852 42.625 24.492 56.438 52.43 1.75 3.523 5.359 5.953 9.562 5.953 5.891 0 10.656-4.781 10.656-10.672a10.434 10.434 0 00-1.11-4.727zm-68.343 70.742c-9.688-16.352-22.78-26.289-38.874-29.523-29.719-5.977-58.938 13.969-62.922 16.828-.141.102-.25.18-.297.219-2.609 1.945-4.312 5.055-4.312 8.562 0 5.898 4.766 10.68 10.656 10.68 2.391 0 4.578-.797 6.359-2.117.234-.18 24.531-17.641 46.296-13.266 10.079 2.031 18.172 8.406 24.75 19.499 14.062 23.703 3.547 39.055-19.608 68.773-7.954 10.219-16.985 21.797-25.297 35.094-15.781 25.25-18.546 47.53-20.375 62.296-.656 5.297-1.547 12.516-2.812 14.234-.25.094-.953.25-2.453.25-3.812-.031-6.953-1.531-9.875-4.688-13.953-15.094-16.469-60.749-14.75-85.968.016-.25.031-.5.031-.734 0-5.891-4.766-10.672-10.656-10.672-5.656 0-10.266 4.391-10.641 9.938-.047.75-1.234 18.469.406 39.469 2.312 29.624 9.016 50.624 19.938 62.437 6.891 7.453 15.641 11.438 25.328 11.547h.375c12.484 0 18.484-6.484 21.343-11.953 3.016-5.812 3.906-12.969 4.938-21.234 1.688-13.672 4.016-32.359 17.297-53.608 7.735-12.375 16.016-23 24.032-33.281 11.702-15.031 21.796-27.999 26.999-42.344 6.14-16.939 4.218-33.431-5.876-50.438z" fill="#00a8bc"/></svg>