<?xml version="1.0" encoding="iso-8859-1"?>
<!-- Generator: Adobe Illustrator 19.0.0, SVG Export Plug-In . SVG Version: 6.00 Build 0)  -->
<svg xmlns="http://www.w3.org/2000/svg" xmlns:xlink="http://www.w3.org/1999/xlink" version="1.1" id="Layer_1" x="0px" y="0px" viewBox="0 0 512.008 512.008" style="enable-background:new 0 0 512.008 512.008;" xml:space="preserve" width="512px" height="512px">
<g>
	<g>
		<path d="M417.923,110.721c-10.734-39.914-37-69.858-78.093-89.015C253.065-18.732,194.987,4.839,161.55,31.745    c-26.938,21.672-48.781,54.632-61.484,92.812c-11.188,33.617-14.391,69.148-8.594,95.046c1.203,5.422,6.406,9.07,11.984,8.234    c5.812-0.875,9.828-6.312,8.953-12.141c-0.031-0.258-0.094-0.5-0.141-0.742c-9.015-40.241,8.125-122.726,62.656-166.592    c41.188-33.133,95.094-35.664,155.89-7.328c35.108,16.367,57.483,41.663,66.499,75.194    c14.531,54.086-7.297,121.265-28.188,168.093c-23.046,51.703-50.108,90.687-50.374,91.062l-0.812,1.172l-0.484,1.344    c-16.391,45.734-37.141,78.203-61.671,96.516c-19.328,14.438-40.718,19.359-61.859,14.25    c-18.406-4.438-36.062-16.531-48.422-33.156c-12.078-16.219-17.781-34.844-15.656-51.125c0.125-0.969,0.109-1.953-0.031-2.969    c-0.875-5.812-6.312-9.844-12.141-8.969c-4.812,0.719-8.375,4.578-8.984,9.188c-5.938,45.656,31.546,96.031,80.234,107.781    c7.172,1.719,14.344,2.594,21.453,2.594c20.203,0,40-6.938,58.172-20.5c27.702-20.688,50.749-56.031,68.515-105.094    c4.859-7.125,29.499-44.062,51.39-93.03c14.109-31.593,24.078-61.594,29.641-89.187    C425.189,169.041,425.126,137.588,417.923,110.721z" fill="#00a8bc"/>
	</g>
</g>
<g>
	<g>
		<path d="M364.345,128.299c-0.047-0.109-0.125-0.273-0.188-0.375c-16.562-33.312-39.905-54.539-69.421-63.094    c-51-14.788-102.03,14.031-107.843,17.469c-0.172,0.102-0.312,0.18-0.375,0.227c-3.062,1.875-5.125,5.25-5.125,9.109    c0,5.891,4.781,10.672,10.672,10.672c2.031,0,3.938-0.578,5.547-1.57c0.469-0.281,47.062-28.219,91.187-15.422    c23.641,6.852,42.625,24.492,56.438,52.43c1.75,3.523,5.359,5.953,9.562,5.953c5.891,0,10.656-4.781,10.656-10.672    C365.454,131.322,365.064,129.721,364.345,128.299z" fill="#00a8bc"/>
	</g>
</g>
<g>
	<g>
		<path d="M296.002,199.041c-9.688-16.352-22.78-26.289-38.874-29.523c-29.719-5.977-58.938,13.969-62.922,16.828    c-0.141,0.102-0.25,0.18-0.297,0.219c-2.609,1.945-4.312,5.055-4.312,8.562c0,5.898,4.766,10.68,10.656,10.68    c2.391,0,4.578-0.797,6.359-2.117c0.234-0.18,24.531-17.641,46.296-13.266c10.079,2.031,18.172,8.406,24.75,19.499    c14.062,23.703,3.547,39.055-19.608,68.773c-7.954,10.219-16.985,21.797-25.297,35.094c-15.781,25.25-18.546,47.53-20.375,62.296    c-0.656,5.297-1.547,12.516-2.812,14.234c-0.25,0.094-0.953,0.25-2.453,0.25c-3.812-0.031-6.953-1.531-9.875-4.688    c-13.953-15.094-16.469-60.749-14.75-85.968c0.016-0.25,0.031-0.5,0.031-0.734c0-5.891-4.766-10.672-10.656-10.672    c-5.656,0-10.266,4.391-10.641,9.938c-0.047,0.75-1.234,18.469,0.406,39.469c2.312,29.624,9.016,50.624,19.938,62.437    c6.891,7.453,15.641,11.438,25.328,11.547c0.125,0,0.25,0,0.375,0c12.484,0,18.484-6.484,21.343-11.953    c3.016-5.812,3.906-12.969,4.938-21.234c1.688-13.672,4.016-32.359,17.297-53.608c7.735-12.375,16.016-23,24.032-33.281    c11.702-15.031,21.796-27.999,26.999-42.344C308.018,232.54,306.096,216.048,296.002,199.041z" fill="#00a8bc"/>
	</g>
</g>
<g>
</g>
<g>
</g>
<g>
</g>
<g>
</g>
<g>
</g>
<g>
</g>
<g>
</g>
<g>
</g>
<g>
</g>
<g>
</g>
<g>
</g>
<g>
</g>
<g>
</g>
<g>
</g>
<g>
</g>
</svg>
