<svg xmlns="http://www.w3.org/2000/svg" xmlns:xlink="http://www.w3.org/1999/xlink" version="1.1" id="Capa_1" x="0" y="0" viewBox="0 0 58 58" xml:space="preserve" width="512" height="512"><g fill="#00a8bc"><path d="M22 28h8v-4h4v-8h-4v-4h-8v4h-4v8h4v4zm-2-6v-4h4v-4h4v4h4v4h-4v4h-4v-4h-4zm1 14a1 1 0 100 2h10a1 1 0 100-2H21zm14 4H17a1 1 0 100 2h18a1 1 0 100-2zm0 4H17a1 1 0 100 2h18a1 1 0 100-2z"/><path d="M48 0H4v58h44v-6h6V0h-6zm-2 56H6V2h40v54zm6-6h-4v-8h4v8zm0-10h-4v-8h4v8zm0-10h-4v-8h4v8zm0-10h-4v-8h4v8zm-4-10V2h4v8h-4z"/></g></svg>