<svg version="1.1" id="Capa_1" xmlns="http://www.w3.org/2000/svg" xmlns:xlink="http://www.w3.org/1999/xlink" x="0" y="0" viewBox="0 0 406.836 406.836" xml:space="preserve" fill="#00a8bc"><path d="M144.722 216.526h242.11v-15.123c0-5.522 4.478-10 10-10s10 4.478 10 10v25.123c0 5.522-4.478 10-10 10h-252.11c-5.522 0-10-4.478-10-10s4.477-10 10-10zm262.114 154.162c0 5.522-4.478 10-10 10H10.002c-5.522 0-10-4.478-10-10s4.478-10 10-10h38.349V276.15H10c-5.522 0-10-4.478-10-10l.002-.201V84.494c0-32.173 26.174-58.347 58.347-58.347h34.124c36.635 0 67.017 27.276 71.901 62.589h39.041c5.522 0 10 4.478 10 10s-4.478 10-10 10h-96.706c-5.522 0-10-4.478-10-10s4.478-10 10-10h37.397c-4.683-24.233-26.055-42.589-51.634-42.589H58.349c-21.145 0-38.347 17.202-38.347 38.347V256.15h328.28c.133-.002.27-.002.402 0h48.151c5.522 0 10 4.478 10 10s-4.478 10-10 10h-38.353v84.538h38.353c5.523 0 10.001 4.478 10.001 10zm-68.353-94.538H68.351v84.538h270.133V276.15zM82.109 148.846c24.175 0 43.842 19.667 43.842 43.842 0 24.174-19.667 43.841-43.842 43.841-24.174 0-43.841-19.667-43.841-43.841.001-24.175 19.668-43.842 43.841-43.842zm0 20c-13.146 0-23.841 10.695-23.841 23.842 0 13.146 10.695 23.841 23.841 23.841s23.842-10.695 23.842-23.841c0-13.147-10.695-23.842-23.842-23.842z"/></svg>