<svg version="1.1" id="Layer_1" xmlns="http://www.w3.org/2000/svg" xmlns:xlink="http://www.w3.org/1999/xlink" x="0" y="0" viewBox="0 0 512.001 512.001" xml:space="preserve" fill="#00a8bc"><path d="M510.226 196.57l-61.059-88.347a10.008 10.008 0 00-8.235-4.318H270.34l-7.117-11.33a10.01 10.01 0 00-16.952 0l-7.117 11.33H71.069a10.016 10.016 0 00-8.235 4.318L1.775 196.57a10.01 10.01 0 008.235 15.7h5.753v201.831c0 5.528 4.481 10.01 10.01 10.01H483.72c5.529 0 10.01-4.481 10.01-10.01v-201.83h8.261a10.012 10.012 0 008.235-15.701zM76.319 123.923h150.258l-42.92 68.328H29.096l47.223-68.328zM288.78 404.054h-68.067v-93.092h68.067v93.092zm184.931.038H308.8v-103.14c0-5.529-4.481-10.01-10.01-10.01h-88.087c-5.528 0-10.01 4.481-10.01 10.01v103.14H35.783V212.271H189.19c3.443 0 6.645-1.77 8.476-4.686l57.08-90.87 57.08 90.87a10.01 10.01 0 008.476 4.686h153.407v191.821zM325.836 192.251l-42.92-68.328h152.766l47.223 68.328H325.836z"/><path d="M254.746 179.979c-21.526 0-39.039 17.512-39.039 39.039s17.512 39.039 39.039 39.039 39.039-17.512 39.039-39.039-17.513-39.039-39.039-39.039zm0 58.057c-10.487 0-19.019-8.531-19.019-19.019s8.531-19.019 19.019-19.019c10.487 0 19.019 8.531 19.019 19.019s-8.531 19.019-19.019 19.019zm-14.514 83.311c-5.528 0-10.01 4.481-10.01 10.01v10.635c0 5.529 4.481 10.01 10.01 10.01s10.01-4.481 10.01-10.01v-10.635c0-5.528-4.482-10.01-10.01-10.01zm29.028 0c-5.529 0-10.01 4.481-10.01 10.01v10.635c0 5.529 4.481 10.01 10.01 10.01 5.528 0 10.01-4.481 10.01-10.01v-10.635c0-5.528-4.481-10.01-10.01-10.01zm106.898-55.283h-47.339c-5.529 0-10.01 4.481-10.01 10.01v71.07c0 5.528 4.481 10.01 10.01 10.01h47.339c5.529 0 10.01-4.481 10.01-10.01v-71.07c0-5.529-4.481-10.01-10.01-10.01zm-10.01 71.07h-27.319v-7.153h27.319v7.153zm0-27.173h-27.319v-23.878h27.319v23.878zm87.795-43.897h-47.339c-5.529 0-10.01 4.481-10.01 10.01v71.07c0 5.528 4.481 10.01 10.01 10.01h47.339c5.529 0 10.01-4.481 10.01-10.01v-71.07c0-5.529-4.482-10.01-10.01-10.01zm-10.01 71.07h-27.319v-7.153h27.319v7.153zm0-27.173h-27.319v-23.878h27.319v23.878zm-341.045-43.897H55.549c-5.528 0-10.01 4.481-10.01 10.01v71.07c0 5.528 4.481 10.01 10.01 10.01h47.339c5.528 0 10.01-4.481 10.01-10.01v-71.07c0-5.529-4.481-10.01-10.01-10.01zm-10.01 71.07H65.559v-7.153h27.319v7.153zm0-27.173H65.559v-23.878h27.319v23.878zm87.795-43.897h-47.339c-5.529 0-10.01 4.481-10.01 10.01v71.07c0 5.528 4.481 10.01 10.01 10.01h47.339c5.528 0 10.01-4.481 10.01-10.01v-71.07c0-5.529-4.482-10.01-10.01-10.01zm-10.01 71.07h-27.319v-7.153h27.319v7.153zm0-27.173h-27.319v-23.878h27.319v23.878zm225.223-146.999h-55.054c-5.529 0-10.01 4.481-10.01 10.01s4.482 10.01 10.01 10.01h55.054c5.529 0 10.01-4.481 10.01-10.01s-4.482-10.01-10.01-10.01zm35.034 0h-4.004c-5.529 0-10.01 4.481-10.01 10.01s4.482 10.01 10.01 10.01h4.004c5.529 0 10.01-4.481 10.01-10.01s-4.481-10.01-10.01-10.01z"/></svg>