<?xml version="1.0" encoding="iso-8859-1"?>
<!-- Generator: Adobe Illustrator 19.0.0, SVG Export Plug-In . SVG Version: 6.00 Build 0)  -->
<svg version="1.1" id="Layer_1" xmlns="http://www.w3.org/2000/svg" xmlns:xlink="http://www.w3.org/1999/xlink" x="0px" y="0px"
	 viewBox="0 0 512.001 512.001" style="fill:#00a8bc" xml:space="preserve">
<g>
	<g>
		<path d="M510.226,196.57l-61.059-88.347c-1.869-2.705-4.947-4.318-8.235-4.318H270.34l-7.117-11.33
			c-1.832-2.916-5.033-4.686-8.476-4.686c-3.443,0-6.645,1.77-8.476,4.686l-7.117,11.33H71.069c-3.287,0-6.365,1.615-8.235,4.318
			L1.775,196.57c-2.116,3.062-2.358,7.045-0.63,10.34c1.729,3.296,5.143,5.36,8.865,5.36h5.753v201.831
			c0,5.528,4.481,10.01,10.01,10.01h457.947c5.529,0,10.01-4.481,10.01-10.01V212.271h8.261c3.722,0,7.136-2.065,8.865-5.36
			C512.584,203.614,512.342,199.631,510.226,196.57z M76.319,123.923h150.258l-42.92,68.328H29.096L76.319,123.923z M288.78,404.054
			h-68.067v-93.092h68.067V404.054z M473.711,404.092H308.8v-103.14c0-5.529-4.481-10.01-10.01-10.01h-88.087
			c-5.528,0-10.01,4.481-10.01,10.01v103.14H35.783V212.271H189.19c3.443,0,6.645-1.77,8.476-4.686l57.08-90.87l57.08,90.87
			c1.832,2.916,5.033,4.686,8.476,4.686h153.407V404.092z M325.836,192.251l-42.92-68.328h152.766l47.223,68.328H325.836z"/>
	</g>
</g>
<g>
	<g>
		<path d="M254.746,179.979c-21.526,0-39.039,17.512-39.039,39.039s17.512,39.039,39.039,39.039s39.039-17.512,39.039-39.039
			S276.272,179.979,254.746,179.979z M254.746,238.036c-10.487,0-19.019-8.531-19.019-19.019s8.531-19.019,19.019-19.019
			c10.487,0,19.019,8.531,19.019,19.019S265.234,238.036,254.746,238.036z"/>
	</g>
</g>
<g>
	<g>
		<path d="M240.232,321.347c-5.528,0-10.01,4.481-10.01,10.01v10.635c0,5.529,4.481,10.01,10.01,10.01s10.01-4.481,10.01-10.01
			v-10.635C250.242,325.829,245.76,321.347,240.232,321.347z"/>
	</g>
</g>
<g>
	<g>
		<path d="M269.26,321.347c-5.529,0-10.01,4.481-10.01,10.01v10.635c0,5.529,4.481,10.01,10.01,10.01
			c5.528,0,10.01-4.481,10.01-10.01v-10.635C279.27,325.829,274.789,321.347,269.26,321.347z"/>
	</g>
</g>
<g>
	<g>
		<path d="M376.158,266.064h-47.339c-5.529,0-10.01,4.481-10.01,10.01v71.07c0,5.528,4.481,10.01,10.01,10.01h47.339
			c5.529,0,10.01-4.481,10.01-10.01v-71.07C386.168,270.545,381.687,266.064,376.158,266.064z M366.148,337.134h-27.319v-7.153
			h27.319V337.134z M366.148,309.961h-27.319v-23.878h27.319V309.961z"/>
	</g>
</g>
<g>
	<g>
		<path d="M453.943,266.064h-47.339c-5.529,0-10.01,4.481-10.01,10.01v71.07c0,5.528,4.481,10.01,10.01,10.01h47.339
			c5.529,0,10.01-4.481,10.01-10.01v-71.07C463.953,270.545,459.471,266.064,453.943,266.064z M443.933,337.134h-27.319v-7.153
			h27.319V337.134z M443.933,309.961h-27.319v-23.878h27.319V309.961z"/>
	</g>
</g>
<g>
	<g>
		<path d="M102.888,266.064H55.549c-5.528,0-10.01,4.481-10.01,10.01v71.07c0,5.528,4.481,10.01,10.01,10.01h47.339
			c5.528,0,10.01-4.481,10.01-10.01v-71.07C112.898,270.545,108.417,266.064,102.888,266.064z M92.878,337.134H65.559v-7.153h27.319
			V337.134z M92.878,309.961H65.559v-23.878h27.319V309.961z"/>
	</g>
</g>
<g>
	<g>
		<path d="M180.673,266.064h-47.339c-5.529,0-10.01,4.481-10.01,10.01v71.07c0,5.528,4.481,10.01,10.01,10.01h47.339
			c5.528,0,10.01-4.481,10.01-10.01v-71.07C190.683,270.545,186.201,266.064,180.673,266.064z M170.663,337.134h-27.319v-7.153
			h27.319V337.134z M170.663,309.961h-27.319v-23.878h27.319V309.961z"/>
	</g>
</g>
<g>
	<g>
		<path d="M395.886,162.962h-55.054c-5.529,0-10.01,4.481-10.01,10.01c0,5.529,4.482,10.01,10.01,10.01h55.054
			c5.529,0,10.01-4.481,10.01-10.01C405.896,167.443,401.414,162.962,395.886,162.962z"/>
	</g>
</g>
<g>
	<g>
		<path d="M430.92,162.962h-4.004c-5.529,0-10.01,4.481-10.01,10.01c0,5.529,4.482,10.01,10.01,10.01h4.004
			c5.529,0,10.01-4.481,10.01-10.01C440.93,167.443,436.449,162.962,430.92,162.962z"/>
	</g>
</g>
<g>
</g>
<g>
</g>
<g>
</g>
<g>
</g>
<g>
</g>
<g>
</g>
<g>
</g>
<g>
</g>
<g>
</g>
<g>
</g>
<g>
</g>
<g>
</g>
<g>
</g>
<g>
</g>
<g>
</g>
</svg>
