<svg version="1.1" id="Layer_1" xmlns="http://www.w3.org/2000/svg" xmlns:xlink="http://www.w3.org/1999/xlink" x="0" y="0" viewBox="0 0 496 496" xml:space="preserve" fill="#00a8bc"><path d="M328 0c-34.616 0-66.816 10.536-93.576 28.56l1.992-2.976C211.408 8.84 182.216 0 152 0 68.184 0 0 68.184 0 152v16c0 17.912 9.872 33.528 24.448 41.776C9.704 219.872 0 236.824 0 256v240h16V256c0-22.056 17.944-40 40-40h96v-16H91.672c7.64-8.504 12.328-19.696 12.328-32H88c0 17.648-14.352 32-32 32h-8c-17.648 0-32-14.352-32-32v-16C16 77.008 77.008 16 152 16c25.536 0 50.2 7.144 71.72 20.528C184.968 67.328 160 114.768 160 168c0 78.832 54.648 144.968 128 162.984V360c0 66.168-53.832 120-120 120-66.176 0-120-53.832-120-120 0-22.056 17.944-40 40-40s40 17.944 40 40v8h16v-8c0-15.664-6.48-29.824-16.888-40H152v-16H88c-30.872 0-56 25.128-56 56v136h16v-72.136C70.912 466.736 116.088 496 168 496c74.992 0 136-61.008 136-136v-25.92c7.856 1.136 15.832 1.92 24 1.92 92.632 0 168-75.368 168-168S420.632 0 328 0zm0 320c-83.816 0-152-68.184-152-152S244.184 16 328 16s152 68.184 152 152-68.184 152-152 152z"/><path d="M328 32c-74.992 0-136 61.008-136 136s61.008 136 136 136 136-61.008 136-136S402.992 32 328 32zm0 256c-66.176 0-120-53.832-120-120S261.824 48 328 48c66.168 0 120 53.832 120 120s-53.832 120-120 120z"/><path d="M272 176c-17.648 0-32 14.352-32 32s14.352 32 32 32 32-14.352 32-32-14.352-32-32-32zm0 48c-8.824 0-16-7.176-16-16s7.176-16 16-16c8.816 0 16 7.176 16 16s-7.184 16-16 16zm88-88c0-13.232-10.768-24-24-24s-24 10.768-24 24 10.768 24 24 24 24-10.768 24-24zm-24 8c-4.416 0-8-3.584-8-8s3.584-8 8-8 8 3.584 8 8-3.584 8-8 8zm48 32c-17.648 0-32 14.352-32 32s14.352 32 32 32 32-14.352 32-32-14.352-32-32-32zm0 48c-8.824 0-16-7.176-16-16s7.176-16 16-16c8.816 0 16 7.176 16 16s-7.184 16-16 16zm16-128c-13.232 0-24 10.768-24 24s10.768 24 24 24 24-10.768 24-24-10.768-24-24-24zm0 32c-4.416 0-8-3.584-8-8s3.584-8 8-8 8 3.584 8 8-3.584 8-8 8zM280 72c-17.648 0-32 14.352-32 32s14.352 32 32 32 32-14.352 32-32-14.352-32-32-32zm0 48c-8.824 0-16-7.184-16-16s7.176-16 16-16c8.816 0 16 7.184 16 16s-7.184 16-16 16zm72 144c0-13.232-10.768-24-24-24s-24 10.768-24 24 10.768 24 24 24 24-10.768 24-24zm-24 8c-4.416 0-8-3.584-8-8s3.584-8 8-8 8 3.584 8 8-3.584 8-8 8z"/></svg>