<svg version="1.1" id="Layer_1" xmlns="http://www.w3.org/2000/svg" xmlns:xlink="http://www.w3.org/1999/xlink" x="0" y="0" viewBox="0 0 512 512" xml:space="preserve" fill="#fff"><path d="M132.718 112.664H10.497c-5.768 0-10.446 4.677-10.446 10.446v211.013c0 5.769 4.678 10.446 10.446 10.446H112.78c5.768 0 10.446-4.677 10.446-10.446s-4.678-10.446-10.446-10.446H20.944v-190.12h111.774c5.768 0 10.446-4.677 10.446-10.446 0-5.77-4.678-10.447-10.446-10.447zM10.583 470.968h-.137C4.678 470.968 0 475.645 0 481.415c0 5.769 4.678 10.446 10.446 10.446h.137c5.768 0 10.446-4.677 10.446-10.446 0-5.77-4.678-10.447-10.446-10.447zm283.446-278.913c-6.438 0-11.677 5.238-11.677 11.677 0 6.438 5.239 11.676 11.677 11.676s11.675-5.239 11.676-11.676c0-6.439-5.238-11.677-11.676-11.677zm-76.195 0c-6.438 0-11.676 5.238-11.676 11.677 0 6.438 5.238 11.676 11.676 11.676s11.677-5.239 11.677-11.676c0-6.439-5.239-11.677-11.677-11.677zm48.349 49.217h-20.416c-5.768 0-10.446 4.677-10.446 10.446 0 11.388 9.266 20.654 20.654 20.654s20.653-9.266 20.654-20.654c.001-5.769-4.677-10.446-10.446-10.446zm6.998-177.495h-6.752v-6.752c0-5.769-4.678-10.446-10.446-10.446s-10.446 4.677-10.446 10.446v6.752h-6.752c-5.768 0-10.446 4.677-10.446 10.446s4.678 10.446 10.446 10.446h6.752v6.752c0 5.769 4.678 10.446 10.446 10.446s10.446-4.677 10.446-10.446V84.67h6.752c5.768 0 10.446-4.677 10.446-10.446.001-5.77-4.677-10.447-10.446-10.447zm167.751 345.037h-2.484v-2.484c0-5.769-4.678-10.446-10.446-10.446s-10.446 4.677-10.446 10.446v2.484h-2.484c-5.768 0-10.446 4.677-10.446 10.446s4.678 10.446 10.446 10.446h2.484v2.484c0 5.769 4.678 10.446 10.446 10.446s10.446-4.677 10.446-10.446v-2.484h2.484c5.768 0 10.446-4.677 10.446-10.446.001-5.77-4.677-10.446-10.446-10.446z"/><path d="M427.865 371.901c-26.113 0-47.359 21.244-47.359 47.359 0 26.114 21.245 47.359 47.359 47.359s47.359-21.244 47.359-47.359c0-26.115-21.245-47.359-47.359-47.359zm0 73.825c-14.594 0-26.466-11.873-26.466-26.466s11.872-26.466 26.466-26.466 26.466 11.873 26.466 26.466-11.871 26.466-26.466 26.466z"/><path d="M501.554 346.659h-26.33V323.71c0-5.769-4.678-10.446-10.446-10.446h-73.552c-5.768 0-10.446 4.677-10.446 10.446v22.949H363.7l-51.284-21.369a6.376 6.376 0 01-3.935-5.903v-16.266l27.306-15.657c.19-.11.377-.225.56-.346 13.672-9.029 22.649-25.086 24.015-42.953.021-.264.03-.531.03-.796v-8.672c13.565-4.412 23.398-17.178 23.398-32.196s-9.833-27.784-23.398-32.196v-21.641c0-3.082-1.255-16.021-5.216-32.593V30.585c0-5.769-4.678-10.446-10.446-10.446H167.234c-5.768 0-10.446 4.677-10.446 10.446v86.307c-1.532 4.806-2.876 10.977-3.543 14.706-.798 4.462-1.775 12.495-1.775 17.066v21.641c-13.565 4.412-23.398 17.178-23.398 32.196 0 15.018 9.833 27.784 23.398 32.196v8.672c0 .265.01.532.03.796 1.372 17.94 10.286 33.997 23.847 42.953.187.124.377.241.572.352l27.462 15.7v16.217a6.378 6.378 0 01-3.935 5.903l-67.23 28.013c-17.595 7.331-29.882 26.672-29.882 47.033v70.632H44.379c-5.768 0-10.446 4.677-10.446 10.446s4.678 10.446 10.446 10.446h457.175c5.768 0 10.446-4.677 10.446-10.446v-124.31c0-5.768-4.678-10.445-10.446-10.445zm-177.671 87.989a2.524 2.524 0 012.521 2.521c0 1.39-1.13 2.521-2.521 2.521s-2.521-1.131-2.521-2.521a2.523 2.523 0 012.521-2.521zm14.518-299.487c-11.335 6.941-24.248 10.582-37.693 10.582-17.538 0-34.149-6.294-47.106-17.411h83.395c.004.019 1.384 6.707 1.404 6.829zM177.68 41.032h156.605v66.408H177.68V41.032zm8.924 228.482c-7.982-5.405-13.281-15.289-14.242-26.565V225.9c0-5.769-4.678-10.446-10.446-10.446-7.142 0-12.952-5.811-12.952-12.952s5.811-12.952 12.952-12.952c5.768 0 10.446-4.677 10.446-10.446v-33.977c14.84-1.799 29.476-7.597 41.322-16.791h11.675c17.566 24.061 45.404 38.303 75.349 38.303 13.566 0 26.711-2.884 38.793-8.429v20.896c0 5.769 4.678 10.446 10.446 10.446 7.142 0 12.952 5.811 12.952 12.952s-5.811 12.952-12.952 12.952c-5.768 0-10.446 4.677-10.446 10.446v17.047c-.948 11.047-6.441 21.17-14.417 26.57L269 301.677c-.19.11-.377.225-.56.346-7.833 5.172-17.181 5.172-25.013 0a10.435 10.435 0 00-.572-.352l-56.251-32.157zm58.933 201.454h-122.31v-70.632c0-11.774 7.32-23.703 17.026-27.748l29.027-12.095v22.849c-12.452 4.335-21.416 16.184-21.416 30.093v31.354c0 5.769 4.678 10.446 10.446 10.446h4.441c5.768 0 10.446-4.677 10.446-10.446 0-3.534-1.755-6.658-4.441-8.548v-22.806c0-6.048 4.921-10.969 10.97-10.969 6.048 0 10.97 4.92 10.97 10.969v23.767a10.416 10.416 0 00-3.266 7.587c0 5.769 4.678 10.446 10.446 10.446h3.266c5.768 0 10.446-4.677 10.446-10.446v-31.354c0-13.91-8.964-25.758-21.416-30.093v-31.554l13.21-5.504v10.627c0 25.334 18.138 46.523 42.155 51.364v62.693zm-21.264-114.056v-41.797l7.938 4.538c7.333 4.762 15.526 7.143 23.721 7.143 8.197 0 16.393-2.383 23.727-7.147l7.93-4.547v41.811c0 17.376-14.179 31.513-31.607 31.513-17.483-.002-31.709-14.138-31.709-31.514zm119.458 114.056h-77.302v-62.696c23.96-4.848 42.053-26.034 42.053-51.361v-10.627l4.955 2.064v67.875c-7.68 3.846-12.967 11.787-12.967 20.945 0 12.909 10.504 23.413 23.413 23.413 8.359 0 15.705-4.406 19.848-11.016v21.403zm0-46.198a23.58 23.58 0 00-9.402-8.547v-59.17l9.402 3.917v63.8zm57.942-90.614h52.659v12.503h-52.659v-12.503zm89.435 136.812H364.623V367.551h126.484v103.417z"/><path d="M142.816 323.677h-.174c-5.768 0-10.446 4.677-10.446 10.446s4.678 10.446 10.446 10.446h.174c5.768 0 10.446-4.677 10.446-10.446s-4.678-10.446-10.446-10.446zM56.461 149.226H36.613c-5.768 0-10.446 4.677-10.446 10.446s4.678 10.446 10.446 10.446h19.848c5.768 0 10.446-4.677 10.446-10.446s-4.678-10.446-10.446-10.446zm0 42.829H36.613c-5.768 0-10.446 4.677-10.446 10.446s4.678 10.446 10.446 10.446h19.848c5.768 0 10.446-4.677 10.446-10.446s-4.678-10.446-10.446-10.446zm0 42.83H36.613c-5.768 0-10.446 4.677-10.446 10.446s4.678 10.446 10.446 10.446h19.848c5.768 0 10.446-4.677 10.446-10.446 0-5.77-4.678-10.446-10.446-10.446zm0 42.829H36.613c-5.768 0-10.446 4.677-10.446 10.446s4.678 10.446 10.446 10.446h19.848c5.768 0 10.446-4.677 10.446-10.446s-4.678-10.446-10.446-10.446zm83.047 0H119.66c-5.768 0-10.446 4.677-10.446 10.446s4.678 10.446 10.446 10.446h19.848c5.768 0 10.446-4.677 10.446-10.446s-4.678-10.446-10.446-10.446zm0-42.829H119.66c-5.768 0-10.446 4.677-10.446 10.446s4.678 10.446 10.446 10.446h19.848c5.768 0 10.446-4.677 10.446-10.446 0-5.77-4.678-10.446-10.446-10.446zm-50.643-85.659c-5.768 0-10.446 4.677-10.446 10.446V288.16c0 5.769 4.678 10.446 10.446 10.446 5.769 0 10.446-4.677 10.446-10.446V159.672c0-5.769-4.678-10.446-10.446-10.446z"/></svg>