<?xml version="1.0" encoding="iso-8859-1"?>
<!-- Generator: Adobe Illustrator 19.0.0, SVG Export Plug-In . SVG Version: 6.00 Build 0)  -->
<svg version="1.1" id="Layer_1" xmlns="http://www.w3.org/2000/svg" xmlns:xlink="http://www.w3.org/1999/xlink" x="0px" y="0px"
	 viewBox="0 0 512 512" style="fill:#fff;" xml:space="preserve">
<g>
	<g>
		<path d="M132.718,112.664H10.497c-5.768,0-10.446,4.677-10.446,10.446v211.013c0,5.769,4.678,10.446,10.446,10.446H112.78
			c5.768,0,10.446-4.677,10.446-10.446c0-5.769-4.678-10.446-10.446-10.446H20.944V133.557h111.774
			c5.768,0,10.446-4.677,10.446-10.446C143.164,117.341,138.486,112.664,132.718,112.664z"/>
	</g>
</g>
<g>
	<g>
		<path d="M10.583,470.968h-0.137C4.678,470.968,0,475.645,0,481.415c0,5.769,4.678,10.446,10.446,10.446h0.137
			c5.768,0,10.446-4.677,10.446-10.446C21.029,475.645,16.351,470.968,10.583,470.968z"/>
	</g>
</g>
<g>
	<g>
		<path d="M294.029,192.055c-6.438,0-11.677,5.238-11.677,11.677c0,6.438,5.239,11.676,11.677,11.676s11.675-5.239,11.676-11.676
			C305.705,197.293,300.467,192.055,294.029,192.055z"/>
	</g>
</g>
<g>
	<g>
		<path d="M217.834,192.055c-6.438,0-11.676,5.238-11.676,11.677c0,6.438,5.238,11.676,11.676,11.676s11.677-5.239,11.677-11.676
			C229.511,197.293,224.272,192.055,217.834,192.055z"/>
	</g>
</g>
<g>
	<g>
		<path d="M266.183,241.272h-20.416c-5.768,0-10.446,4.677-10.446,10.446c0,11.388,9.266,20.654,20.654,20.654
			s20.653-9.266,20.654-20.654C276.63,245.949,271.952,241.272,266.183,241.272z"/>
	</g>
</g>
<g>
	<g>
		<path d="M273.181,63.777h-6.752v-6.752c0-5.769-4.678-10.446-10.446-10.446c-5.768,0-10.446,4.677-10.446,10.446v6.752h-6.752
			c-5.768,0-10.446,4.677-10.446,10.446c0,5.769,4.678,10.446,10.446,10.446h6.752v6.752c0,5.769,4.678,10.446,10.446,10.446
			c5.768,0,10.446-4.677,10.446-10.446V84.67h6.752c5.768,0,10.446-4.677,10.446-10.446
			C283.628,68.454,278.95,63.777,273.181,63.777z"/>
	</g>
</g>
<g>
	<g>
		<path d="M440.932,408.814h-2.484v-2.484c0-5.769-4.678-10.446-10.446-10.446s-10.446,4.677-10.446,10.446v2.484h-2.484
			c-5.768,0-10.446,4.677-10.446,10.446c0,5.769,4.678,10.446,10.446,10.446h2.484v2.484c0,5.769,4.678,10.446,10.446,10.446
			s10.446-4.677,10.446-10.446v-2.484h2.484c5.768,0,10.446-4.677,10.446-10.446C451.379,413.49,446.701,408.814,440.932,408.814z"
			/>
	</g>
</g>
<g>
	<g>
		<path d="M427.865,371.901c-26.113,0-47.359,21.244-47.359,47.359c0,26.114,21.245,47.359,47.359,47.359
			s47.359-21.244,47.359-47.359C475.224,393.145,453.979,371.901,427.865,371.901z M427.865,445.726
			c-14.594,0-26.466-11.873-26.466-26.466s11.872-26.466,26.466-26.466s26.466,11.873,26.466,26.466S442.46,445.726,427.865,445.726
			z"/>
	</g>
</g>
<g>
	<g>
		<path d="M501.554,346.659h-26.33V323.71c0-5.769-4.678-10.446-10.446-10.446h-73.552c-5.768,0-10.446,4.677-10.446,10.446v22.949
			h-17.08l-51.284-21.369c-2.39-0.995-3.935-3.312-3.935-5.903v-16.266l27.306-15.657c0.19-0.11,0.377-0.225,0.56-0.346
			c13.672-9.029,22.649-25.086,24.015-42.953c0.021-0.264,0.03-0.531,0.03-0.796v-8.672c13.565-4.412,23.398-17.178,23.398-32.196
			s-9.833-27.784-23.398-32.196v-21.641c0-3.082-1.255-16.021-5.216-32.593V30.585c0-5.769-4.678-10.446-10.446-10.446H167.234
			c-5.768,0-10.446,4.677-10.446,10.446v86.307c-1.532,4.806-2.876,10.977-3.543,14.706c-0.798,4.462-1.775,12.495-1.775,17.066
			v21.641c-13.565,4.412-23.398,17.178-23.398,32.196c0,15.018,9.833,27.784,23.398,32.196v8.672c0,0.265,0.01,0.532,0.03,0.796
			c1.372,17.94,10.286,33.997,23.847,42.953c0.187,0.124,0.377,0.241,0.572,0.352l27.462,15.7v16.217
			c0,2.59-1.545,4.907-3.935,5.903l-67.23,28.013c-17.595,7.331-29.882,26.672-29.882,47.033v70.632H44.379
			c-5.768,0-10.446,4.677-10.446,10.446c0,5.769,4.678,10.446,10.446,10.446h457.175c5.768,0,10.446-4.677,10.446-10.446v-124.31
			C512,351.336,507.322,346.659,501.554,346.659z M323.883,434.648c1.39,0,2.521,1.131,2.521,2.521c0,1.39-1.13,2.521-2.521,2.521
			s-2.521-1.131-2.521-2.521C321.362,435.778,322.493,434.648,323.883,434.648z M338.401,135.161
			c-11.335,6.941-24.248,10.582-37.693,10.582c-17.538,0-34.149-6.294-47.106-17.411h83.395
			C337.001,128.351,338.381,135.039,338.401,135.161z M177.68,41.032h156.605v66.408H177.68V41.032z M186.604,269.514
			c-7.982-5.405-13.281-15.289-14.242-26.565V225.9c0-5.769-4.678-10.446-10.446-10.446c-7.142,0-12.952-5.811-12.952-12.952
			c0-7.141,5.811-12.952,12.952-12.952c5.768,0,10.446-4.677,10.446-10.446c0,0,0-29.877,0-33.977
			c14.84-1.799,29.476-7.597,41.322-16.791h11.675c17.566,24.061,45.404,38.303,75.349,38.303c13.566,0,26.711-2.884,38.793-8.429
			v20.896c0,5.769,4.678,10.446,10.446,10.446c7.142,0,12.952,5.811,12.952,12.952s-5.811,12.952-12.952,12.952
			c-5.768,0-10.446,4.677-10.446,10.446v17.047c-0.948,11.047-6.441,21.17-14.417,26.57L269,301.677
			c-0.19,0.11-0.377,0.225-0.56,0.346c-7.833,5.172-17.181,5.172-25.013,0c-0.187-0.123-0.377-0.241-0.572-0.352L186.604,269.514z
			 M245.537,470.968h-122.31v-70.632c0-11.774,7.32-23.703,17.026-27.748l29.027-12.095v22.849
			c-12.452,4.335-21.416,16.184-21.416,30.093v31.354c0,5.769,4.678,10.446,10.446,10.446h4.441c5.768,0,10.446-4.677,10.446-10.446
			c0-3.534-1.755-6.658-4.441-8.548v-22.806c0-6.048,4.921-10.969,10.97-10.969c6.048,0,10.97,4.92,10.97,10.969v23.767
			c-2.011,1.904-3.266,4.598-3.266,7.587c0,5.769,4.678,10.446,10.446,10.446h3.266c5.768,0,10.446-4.677,10.446-10.446v-31.354
			c0-13.91-8.964-25.758-21.416-30.093v-31.554l13.21-5.504v10.627c0,25.334,18.138,46.523,42.155,51.364V470.968z M224.273,356.912
			v-41.797l7.938,4.538c7.333,4.762,15.526,7.143,23.721,7.143c8.197,0,16.393-2.383,23.727-7.147l7.93-4.547v41.811
			c0,17.376-14.179,31.513-31.607,31.513C238.499,388.424,224.273,374.288,224.273,356.912z M343.731,470.968h-77.302v-62.696
			c23.96-4.848,42.053-26.034,42.053-51.361v-10.627l4.955,2.064v67.875c-7.68,3.846-12.967,11.787-12.967,20.945
			c0,12.909,10.504,23.413,23.413,23.413c8.359,0,15.705-4.406,19.848-11.016V470.968z M343.731,424.77
			c-2.284-3.642-5.539-6.612-9.402-8.547v-59.17l9.402,3.917V424.77z M401.673,334.156h52.659v12.503h-52.659V334.156z
			 M491.108,470.968H364.623V367.551h126.484V470.968z"/>
	</g>
</g>
<g>
	<g>
		<path d="M142.816,323.677h-0.174c-5.768,0-10.446,4.677-10.446,10.446c0,5.769,4.678,10.446,10.446,10.446h0.174
			c5.768,0,10.446-4.677,10.446-10.446C153.262,328.354,148.584,323.677,142.816,323.677z"/>
	</g>
</g>
<g>
	<g>
		<path d="M56.461,149.226H36.613c-5.768,0-10.446,4.677-10.446,10.446s4.678,10.446,10.446,10.446h19.848
			c5.768,0,10.446-4.677,10.446-10.446S62.229,149.226,56.461,149.226z"/>
	</g>
</g>
<g>
	<g>
		<path d="M56.461,192.055H36.613c-5.768,0-10.446,4.677-10.446,10.446c0,5.769,4.678,10.446,10.446,10.446h19.848
			c5.768,0,10.446-4.677,10.446-10.446C66.907,196.732,62.229,192.055,56.461,192.055z"/>
	</g>
</g>
<g>
	<g>
		<path d="M56.461,234.885H36.613c-5.768,0-10.446,4.677-10.446,10.446c0,5.769,4.678,10.446,10.446,10.446h19.848
			c5.768,0,10.446-4.677,10.446-10.446C66.907,239.561,62.229,234.885,56.461,234.885z"/>
	</g>
</g>
<g>
	<g>
		<path d="M56.461,277.714H36.613c-5.768,0-10.446,4.677-10.446,10.446c0,5.769,4.678,10.446,10.446,10.446h19.848
			c5.768,0,10.446-4.677,10.446-10.446C66.907,282.391,62.229,277.714,56.461,277.714z"/>
	</g>
</g>
<g>
	<g>
		<path d="M139.508,277.714H119.66c-5.768,0-10.446,4.677-10.446,10.446c0,5.769,4.678,10.446,10.446,10.446h19.848
			c5.768,0,10.446-4.677,10.446-10.446C149.954,282.391,145.276,277.714,139.508,277.714z"/>
	</g>
</g>
<g>
	<g>
		<path d="M139.508,234.885H119.66c-5.768,0-10.446,4.677-10.446,10.446c0,5.769,4.678,10.446,10.446,10.446h19.848
			c5.768,0,10.446-4.677,10.446-10.446C149.954,239.561,145.276,234.885,139.508,234.885z"/>
	</g>
</g>
<g>
	<g>
		<path d="M88.865,149.226c-5.768,0-10.446,4.677-10.446,10.446V288.16c0,5.769,4.678,10.446,10.446,10.446
			c5.769,0,10.446-4.677,10.446-10.446V159.672C99.311,153.903,94.633,149.226,88.865,149.226z"/>
	</g>
</g>
<g>
</g>
<g>
</g>
<g>
</g>
<g>
</g>
<g>
</g>
<g>
</g>
<g>
</g>
<g>
</g>
<g>
</g>
<g>
</g>
<g>
</g>
<g>
</g>
<g>
</g>
<g>
</g>
<g>
</g>
</svg>
