<svg xmlns="http://www.w3.org/2000/svg" xmlns:xlink="http://www.w3.org/1999/xlink" version="1.1" id="Capa_1" x="0" y="0" viewBox="0 0 463 463" xml:space="preserve" width="512" height="512"><g fill="#00a8bc"><path d="M375.5 0h-224c-.086 0-.17.01-.256.013a7.514 7.514 0 00-1.194.129l-.017.003a7.52 7.52 0 00-1.141.33c-.297.11-.587.235-.865.38-.018.01-.037.017-.055.027a7.435 7.435 0 00-.836.526c-.061.043-.12.089-.18.134a7.57 7.57 0 00-.756.65l-.004.003-80 80-.003.003a7.572 7.572 0 00-.651.757l-.134.179c-.192.267-.37.544-.526.835l-.029.06a7.564 7.564 0 00-.378.858l-.065.177c-.108.313-.2.633-.266.964-.002.012-.003.025-.006.037a7.75 7.75 0 00-.128 1.184c0 .085-.01.167-.01.251v352c0 12.958 10.542 23.5 23.5 23.5h288c12.958 0 23.5-10.542 23.5-23.5v-416C399 10.542 388.458 0 375.5 0zM144 25.606V71.5c0 4.687-3.813 8.5-8.5 8.5H89.606L144 25.606zM384 439.5c0 4.687-3.813 8.5-8.5 8.5h-288c-4.687 0-8.5-3.813-8.5-8.5V95h56.5c12.958 0 23.5-10.542 23.5-23.5V15h216.5c4.687 0 8.5 3.813 8.5 8.5v416z"/><path d="M135.5 127h192c4.142 0 7.5-3.357 7.5-7.5s-3.358-7.5-7.5-7.5h-192c-4.142 0-7.5 3.357-7.5 7.5s3.358 7.5 7.5 7.5zm0 40h192c4.142 0 7.5-3.357 7.5-7.5s-3.358-7.5-7.5-7.5h-192c-4.142 0-7.5 3.357-7.5 7.5s3.358 7.5 7.5 7.5zm0 40h192c4.142 0 7.5-3.357 7.5-7.5s-3.358-7.5-7.5-7.5h-192c-4.142 0-7.5 3.357-7.5 7.5s3.358 7.5 7.5 7.5zm0 40h192c4.142 0 7.5-3.357 7.5-7.5s-3.358-7.5-7.5-7.5h-192c-4.142 0-7.5 3.357-7.5 7.5s3.358 7.5 7.5 7.5zm0 40h192c4.142 0 7.5-3.357 7.5-7.5s-3.358-7.5-7.5-7.5h-192c-4.142 0-7.5 3.357-7.5 7.5s3.358 7.5 7.5 7.5zm96 41h-96c-4.142 0-7.5 3.357-7.5 7.5s3.358 7.5 7.5 7.5h96c4.142 0 7.5-3.357 7.5-7.5s-3.358-7.5-7.5-7.5zm0 40h-96c-4.142 0-7.5 3.357-7.5 7.5s3.358 7.5 7.5 7.5h96c4.142 0 7.5-3.357 7.5-7.5s-3.358-7.5-7.5-7.5zm68-24c-6.341 0-11.5 5.159-11.5 11.5s5.159 11.5 11.5 11.5 11.5-5.159 11.5-11.5-5.159-11.5-11.5-11.5z"/><path d="M299.5 312c-23.986 0-43.5 19.514-43.5 43.5s19.514 43.5 43.5 43.5 43.5-19.514 43.5-43.5-19.514-43.5-43.5-43.5zm0 72c-15.715 0-28.5-12.785-28.5-28.5s12.785-28.5 28.5-28.5 28.5 12.785 28.5 28.5-12.785 28.5-28.5 28.5z"/></g></svg>