<svg id="939af952-8ad3-43d4-9306-ab1072f0473c" data-name="Layer 1" xmlns="http://www.w3.org/2000/svg" viewBox="0 0 511.4 512"><path d="M469 0H332.45C306 0 286.36 8.41 266.66 28.11a8.53 8.53 0 0012.07 12.07c16.63-16.63 31.69-23.11 53.72-23.11H469a25.64 25.64 0 0125.61 25.61v136.57c0 22-6.48 37.09-23.11 53.72L218 486.83c-9.68 9.67-26.55 9.66-36.21 0L24.87 329.9a25.59 25.59 0 010-36.21L254 64.89c3.52.9 7.05 1.79 10.7 2.77 34.73 9.3 62.13 18.92 82.56 27.5a51.14 51.14 0 1044.94-26.87 8.54 8.54 0 000 17.07 34.22 34.22 0 11-29.36 16.77c14.78 7.08 24 13 27.68 16.85a41.17 41.17 0 01-7.62 1.25 8.54 8.54 0 00.74 17h.76c5.25-.47 21.22-1.88 24.29-13.33 8.41-31.4-114.79-66.11-139.57-72.75C231.21 41 194.8 34.06 166.6 31.61c-34.68-3-51.56.91-54.72 12.78-1.53 5.69-5.57 20.81 63.63 48.1a8.54 8.54 0 006.27-15.88c-33.44-13.19-47.3-22.85-51.78-27.4 10.54-3.09 46.54-2.19 104.5 11L12.8 281.61a42.67 42.67 0 000 60.36L169.74 498.9a42.68 42.68 0 0060.36 0L483.59 245c19.71-19.7 28.11-39.38 28.11-65.79V42.68A42.73 42.73 0 00469 0zm-25.8 312.2a8.52 8.52 0 00-11.69 3l-97.83 166.93c-7.07 12.23-22.75 16.45-34.6 9.6L280 479.38a8.53 8.53 0 00-9.28 14.32l19.44 12.58a42.69 42.69 0 0058.27-15.57l97.81-166.84a8.53 8.53 0 00-3.04-11.67z" transform="translate(-.3)" fill="#00a8bc"/><path d="M204.41 247.54V367a8.54 8.54 0 0017.07 0V247.54a8.54 8.54 0 10-17.07 0zm51.21 25.61a17.07 17.07 0 1017.07-17.07 17.09 17.09 0 00-17.07 17.07z" transform="translate(-.3)" fill="#00a8bc"/><path d="M136.12 324.36a17.07 17.07 0 1017.07-17.07 17.09 17.09 0 00-17.07 17.07z" transform="translate(-.3)" fill="#04aac7"/></svg>