<svg id="939af952-8ad3-43d4-9306-ab1072f0473c" data-name="Layer 1" xmlns="http://www.w3.org/2000/svg" viewBox="0 0 511.4 512"><title>discount_b</title><path d="M469,0H332.45C306,0,286.36,8.41,266.66,28.11a8.53,8.53,0,0,0,12.07,12.07c16.63-16.63,31.69-23.11,53.72-23.11H469a25.64,25.64,0,0,1,25.61,25.61V179.25c0,22-6.48,37.09-23.11,53.72L218,486.83c-9.68,9.67-26.55,9.66-36.21,0L24.87,329.9a25.59,25.59,0,0,1,0-36.21L254,64.89c3.52,0.9,7.05,1.79,10.7,2.77,34.73,9.3,62.13,18.92,82.56,27.5A51.14,51.14,0,1,0,392.2,68.29a8.54,8.54,0,0,0,0,17.07,34.22,34.22,0,1,1-29.36,16.77c14.78,7.08,24,13,27.68,16.85a41.17,41.17,0,0,1-7.62,1.25,8.54,8.54,0,0,0,.74,17c0.25,0,.5,0,0.76,0,5.25-.47,21.22-1.88,24.29-13.33,8.41-31.4-114.79-66.11-139.57-72.75C231.21,41,194.8,34.06,166.6,31.61c-34.68-3-51.56.91-54.72,12.78-1.53,5.69-5.57,20.81,63.63,48.1a8.54,8.54,0,0,0,6.27-15.88C148.34,63.42,134.48,53.76,130,49.21c10.54-3.09,46.54-2.19,104.5,11L12.8,281.61a42.67,42.67,0,0,0,0,60.36L169.74,498.9a42.68,42.68,0,0,0,60.36,0L483.59,245c19.71-19.7,28.11-39.38,28.11-65.79V42.68A42.73,42.73,0,0,0,469,0Z" transform="translate(-0.3 0)" style="fill:#00a8bc"/><path d="M443.2,312.2a8.52,8.52,0,0,0-11.69,3L333.68,482.13c-7.07,12.23-22.75,16.45-34.6,9.6L280,479.38a8.53,8.53,0,0,0-9.28,14.32l19.44,12.58a42.69,42.69,0,0,0,58.27-15.57l97.81-166.84A8.53,8.53,0,0,0,443.2,312.2Z" transform="translate(-0.3 0)" style="fill:#00a8bc"/><path d="M204.41,247.54V367a8.54,8.54,0,0,0,17.07,0V247.54A8.54,8.54,0,1,0,204.41,247.54Z" transform="translate(-0.3 0)" style="fill:#00a8bc"/><path d="M255.62,273.15a17.07,17.07,0,1,0,17.07-17.07A17.09,17.09,0,0,0,255.62,273.15Z" transform="translate(-0.3 0)" style="fill:#00a8bc"/><path d="M136.12,324.36a17.07,17.07,0,1,0,17.07-17.07A17.09,17.09,0,0,0,136.12,324.36Z" transform="translate(-0.3 0)" style="fill:#04aac7"/></svg>