<svg id="cbd94b25-eaf2-44ae-be28-6ec029188c46" data-name="Layer 1" xmlns="http://www.w3.org/2000/svg" viewBox="0 0 512 443.73"><path d="M264.53 290.13c-30.15 0-51.2 21.05-51.2 51.2v8.53c0 41.47 23.45 68.27 59.73 68.27s59.73-26.8 59.73-68.27v-8.53c0-30.15-21.06-51.2-51.2-51.2h-17.06zm51.2 51.2v8.53c0 15.39-4.16 51.2-42.67 51.2s-42.67-35.81-42.67-51.2v-8.53c0-20.74 13.4-34.13 34.13-34.13h17.08c20.73 0 34.13 13.4 34.13 34.13z" transform="translate(0 -34.13)" fill="#00a8bc"/><path d="M256.26 341.33h-.09a8.58 8.58 0 10.09 0zM298 230.37a8.54 8.54 0 009.17-7.85l8.52-110.8c1.89-20.31 29.19-43.46 51.23-43.46H384c22.46 0 49.75 23.06 51.23 43.32l8.53 110.93a8.53 8.53 0 008.5 7.88h.67a8.54 8.54 0 007.85-9.16l-8.53-110.9C450 79 412.18 51.2 384 51.2h-17.07c-31.06 0-65.49 29.75-68.24 59.08l-8.53 110.93a8.54 8.54 0 007.84 9.16z" transform="translate(0 -34.13)" fill="#00a8bc"/><path d="M375 108.24a8.53 8.53 0 00-16.19 0c-6.41 19.24-25.29 19.75-26 19.76a8.53 8.53 0 00-8.53 8.53v34.13c0 28.5 19.47 68.27 51.2 68.27s51.2-39.76 51.2-68.27v-34.13a8.54 8.54 0 00-8.53-8.53c-.38 0-36.71-.54-43.15-19.76zm34.58 62.43c0 23.19-15.22 51.2-34.13 51.2s-34.13-28-34.13-51.2V144a46.36 46.36 0 0026.25-16.35c11.95 12 31 15.69 42 16.86v26.13zm-238.91-51.2h8.53a8.53 8.53 0 100-17.07h-8.53a8.53 8.53 0 100 17.07zM290.39 358.4a8.53 8.53 0 000-17.07h-.09a8.53 8.53 0 00.09 17.07z" transform="translate(0 -34.13)" fill="#00a8bc"/><path d="M85.66 134.43c1.63 16.4 8.76 30.84 9.11 31.52 7.73 15.47 19.43 38.85 58.84 38.85s51.1-23.38 58.83-38.85c.34-.68 7.48-15.12 9.11-31.52a17.08 17.08 0 008.86-15V102.4a17.07 17.07 0 00-8.53-14.77v-2.3a51.26 51.26 0 00-51.2-51.2h-34.14a51.25 51.25 0 00-51.2 51.2v2.29a17 17 0 00-8.54 14.78v17.07a17.08 17.08 0 008.86 14.96zm8.21-32a8.54 8.54 0 008.53-8.53v-8.57a34.17 34.17 0 0134.13-34.13h34.13a34.17 34.17 0 0134.14 34.13v8.53a8.53 8.53 0 008.53 8.53v17.07a8.53 8.53 0 00-8.53 8.54c0 14.76-7.56 30.17-7.64 30.32-8.88 17.77-16.72 29.41-43.56 29.41s-34.69-11.65-43.6-29.4c-.08-.15-7.64-15.57-7.64-30.33a8.54 8.54 0 00-8.53-8.53V102.4zm204.8 324.24a8.55 8.55 0 00-4.74 1.43L273.07 442l-20.88-13.9a8.55 8.55 0 00-4.73-1.43c-49.37 0-59.73 23.2-59.73 42.67a8.53 8.53 0 0017.07 0c0-6.86 0-24.85 40.12-25.58l23.42 15.62a8.53 8.53 0 009.46 0l23.42-15.62c40.11.73 40.11 18.72 40.11 25.58a8.53 8.53 0 1017.07 0c0-19.47-10.4-42.67-59.73-42.67zm154.16-102.4a8.53 8.53 0 00-8.53 8.5l-.57 136.53a8.53 8.53 0 008.5 8.57 8.53 8.53 0 008.53-8.5l.53-136.53a8.53 8.53 0 00-8.46-8.57z" transform="translate(0 -34.13)" fill="#00a8bc"/><path d="M128 119.47h8.53a8.53 8.53 0 100-17.07H128a8.53 8.53 0 000 17.07zm68.1 155.28l7.14-35.63c43.09 1 74.1 11.71 83.6 29.17a8.53 8.53 0 1015-8.16c-13.39-24.61-50.68-38.14-105-38.14a8.78 8.78 0 00-8.92 6.85l-8.53 42.56a8.53 8.53 0 006.69 10 8.2 8.2 0 001.69.17 8.53 8.53 0 008.33-6.82zm294.98-10.21C474.35 247.85 449.22 239 418.39 239a8.63 8.63 0 00-8.79 8.51c0 1.74-.61 42.59-34.13 42.59s-34.12-40.84-34.13-42.58a8.53 8.53 0 00-17.07 0c0 19.08 9.22 53.84 42.67 58.93v43.36a8.53 8.53 0 1017.07 0V306.5c28.8-4.39 39.65-30.75 42.09-50.18 22.64 1.27 40.82 8.22 52.92 20.31a54.72 54.72 0 0115.92 39.11v136.52a8.53 8.53 0 1017.07 0V315.73a71.72 71.72 0 00-20.93-51.19zM153.6 221.87a17 17 0 00-8.53 31.76v62.11a8.53 8.53 0 0017.07 0v-62.11a17 17 0 00-8.54-31.76zm-93.87 102.4a8.53 8.53 0 00-8.53 8.53v136.53a8.53 8.53 0 0017.07 0V332.8a8.54 8.54 0 00-8.54-8.53z" transform="translate(0 -34.13)" fill="#00a8bc"/><path d="M119.28 228.77c-.85-4.15-4.87-6.78-8.93-6.79-44.83 0-79.11 9.6-96.6 27C4.63 258.13 0 269.1 0 281.6v170.67a8.53 8.53 0 0017.07 0V281.6c0-7.92 2.87-14.63 8.75-20.51 13.3-13.27 41.57-21.16 78.19-22l41.24 197.83a8.53 8.53 0 1016.7-3.48z" transform="translate(0 -34.13)" fill="#04aac7"/></svg>