<svg xmlns="http://www.w3.org/2000/svg" xmlns:xlink="http://www.w3.org/1999/xlink" version="1.1" id="Layer_1" x="0" y="0" viewBox="0 0 512 512" xml:space="preserve" width="512" height="512"><path d="M217.043 0H16.696C7.475 0 0 7.475 0 16.696v200.348c0 9.22 7.475 16.696 16.696 16.696h200.348c9.22 0 16.696-7.475 16.696-16.696V16.696C233.739 7.475 226.264 0 217.043 0zm-16.695 200.348H33.391V33.391h166.957v166.957zM495.304 0H294.957c-9.22 0-16.696 7.475-16.696 16.696v200.348c0 9.22 7.475 16.696 16.696 16.696h200.348c9.22 0 16.696-7.475 16.696-16.696V16.696C512 7.475 504.525 0 495.304 0zm-16.695 200.348H311.652V33.391h166.957v166.957zm-261.566 77.913H16.696C7.475 278.261 0 285.736 0 294.957v200.348C0 504.525 7.475 512 16.696 512h200.348c9.22 0 16.696-7.475 16.696-16.696V294.957c-.001-9.221-7.476-16.696-16.697-16.696zm-16.695 200.348H33.391V311.652h166.957v166.957zm294.956-200.348H294.957c-9.22 0-16.696 7.475-16.696 16.696v200.348c0 9.22 7.475 16.696 16.696 16.696h200.348c9.22 0 16.696-7.475 16.696-16.696V294.957c-.001-9.221-7.476-16.696-16.697-16.696zm-16.695 200.348H311.652V311.652h166.957v166.957z" fill="#00a8bc"/></svg>