<svg id="e2665960-a38b-4e04-9541-e88fb16df901" data-name="Layer 1" xmlns="http://www.w3.org/2000/svg" viewBox="0 0 465.69 512"><title>quality_b</title><path d="M486.51,420.09L380.92,314.5,423.63,299a8,8,0,0,0,5.13-8.89L417.32,225.2l32.94-57.05A8,8,0,0,0,448.48,158L398,115.69,386.57,50.81a8,8,0,0,0-7.86-6.6H312.83L262.37,1.87a8,8,0,0,0-10.26,0L201.64,44.21H135.76a8,8,0,0,0-7.86,6.6l-11.44,64.88L66,158a8,8,0,0,0-1.78,10.11l32.94,57.05L85.71,290.07A8,8,0,0,0,90.84,299l40.9,14.89L25.49,420.09a8,8,0,0,0,5,13.6L96,439.15l5.46,65.53a8,8,0,0,0,13.6,5L256,368.73,396.94,509.66a8,8,0,0,0,13.6-5L416,439.15l65.53-5.46A8,8,0,0,0,486.51,420.09ZM115.95,486.2l-4.59-55.11a8,8,0,0,0-7.29-7.29L49,419.21l99.34-99.34,4.45,1.62,32.94,57.05a8,8,0,0,0,9.65,3.51l38.93-14.17Zm147.8-141.3L260,343.53a8,8,0,0,0-5.46,0l-5.6,2-52.74,19.2-31-53.77a8,8,0,0,0-4.18-3.51l-12-4.35-46.38-16.88,10.78-61.14a8,8,0,0,0-.95-5.38L81.39,166l47.56-39.91a8,8,0,0,0,2.73-4.73l10.78-61.14h62.08a8,8,0,0,0,5.13-1.87l47.56-39.91,47.56,39.91a8,8,0,0,0,5.13,1.87H372l10.78,61.14a8,8,0,0,0,2.73,4.73L433.08,166l-31,53.77a8,8,0,0,0-.95,5.38l10.78,61.14-48.19,17.54-10.15,3.7a8,8,0,0,0-4.18,3.51l-31,53.77-54.55-19.85h0Zm144.2,78.9a8,8,0,0,0-7.29,7.29l-4.59,55.11L276.33,366.48l42.81,15.58a8,8,0,0,0,9.64-3.51l32.94-57.05,2.64-1L463,419.21Z" transform="translate(-23.15 0)" style="fill:#00a8bc"/><path d="M256,68.52a127.2,127.2,0,1,0,127.2,127.2A127.35,127.35,0,0,0,256,68.52ZM256,307A111.24,111.24,0,1,1,367.24,195.72,111.36,111.36,0,0,1,256,307Z" transform="translate(-23.15 0)" style="fill:#00a8bc"/><path d="M347.88,170.3a8,8,0,0,0-7.59-5.52H281.37l-18.21-56a8,8,0,0,0-15.19,0l-18.21,56H170.84a8,8,0,0,0-4.69,14.44l47.67,34.63-18.21,56a8,8,0,0,0,12.29,8.93l47.67-34.63,47.67,34.63a8,8,0,0,0,12.29-8.93l-18.21-56L345,179.23A8,8,0,0,0,347.88,170.3Zm-64.65,34.05a8,8,0,0,0-2.9,8.93l12.41,38.19-32.48-23.6a8,8,0,0,0-9.38,0l-32.48,23.6,12.41-38.19a8,8,0,0,0-2.9-8.93l-32.48-23.6h40.15a8,8,0,0,0,7.59-5.52l12.41-38.19L268,175.24a8,8,0,0,0,7.59,5.52h40.15Z" transform="translate(-23.15 0)" style="fill:#04aac7"/></svg>