<svg id="e2665960-a38b-4e04-9541-e88fb16df901" data-name="Layer 1" xmlns="http://www.w3.org/2000/svg" viewBox="0 0 465.69 512"><path d="M486.51 420.09L380.92 314.5l42.71-15.5a8 8 0 005.13-8.89l-11.44-64.91 32.94-57.05a8 8 0 00-1.78-10.15L398 115.69l-11.43-64.88a8 8 0 00-7.86-6.6h-65.88L262.37 1.87a8 8 0 00-10.26 0l-50.47 42.34h-65.88a8 8 0 00-7.86 6.6l-11.44 64.88L66 158a8 8 0 00-1.78 10.11l32.94 57.05-11.45 64.91a8 8 0 005.13 8.93l40.9 14.89-106.25 106.2a8 8 0 005 13.6L96 439.15l5.46 65.53a8 8 0 0013.6 5L256 368.73l140.94 140.93a8 8 0 0013.6-5l5.46-65.51 65.53-5.46a8 8 0 004.98-13.6zM115.95 486.2l-4.59-55.11a8 8 0 00-7.29-7.29L49 419.21l99.34-99.34 4.45 1.62 32.94 57.05a8 8 0 009.65 3.51l38.93-14.17zm147.8-141.3l-3.75-1.37a8 8 0 00-5.46 0l-5.6 2-52.74 19.2-31-53.77a8 8 0 00-4.18-3.51l-12-4.35-46.38-16.88 10.78-61.14a8 8 0 00-.95-5.38L81.39 166l47.56-39.91a8 8 0 002.73-4.73l10.78-61.14h62.08a8 8 0 005.13-1.87l47.56-39.91 47.56 39.91a8 8 0 005.13 1.87H372l10.78 61.14a8 8 0 002.73 4.73L433.08 166l-31 53.77a8 8 0 00-.95 5.38l10.78 61.14-48.19 17.54-10.15 3.7a8 8 0 00-4.18 3.51l-31 53.77-54.55-19.85zm144.2 78.9a8 8 0 00-7.29 7.29l-4.59 55.11-119.74-119.72 42.81 15.58a8 8 0 009.64-3.51l32.94-57.05 2.64-1L463 419.21z" transform="translate(-23.15)" fill="#00a8bc"/><path d="M256 68.52a127.2 127.2 0 10127.2 127.2A127.35 127.35 0 00256 68.52zM256 307a111.24 111.24 0 11111.24-111.28A111.36 111.36 0 01256 307z" transform="translate(-23.15)" fill="#00a8bc"/><path d="M347.88 170.3a8 8 0 00-7.59-5.52h-58.92l-18.21-56a8 8 0 00-15.19 0l-18.21 56h-58.92a8 8 0 00-4.69 14.44l47.67 34.63-18.21 56a8 8 0 0012.29 8.93l47.67-34.63 47.67 34.63a8 8 0 0012.29-8.93l-18.21-56L345 179.23a8 8 0 002.88-8.93zm-64.65 34.05a8 8 0 00-2.9 8.93l12.41 38.19-32.48-23.6a8 8 0 00-9.38 0l-32.48 23.6 12.41-38.19a8 8 0 00-2.9-8.93l-32.48-23.6h40.15a8 8 0 007.59-5.52l12.41-38.19 12.42 38.2a8 8 0 007.59 5.52h40.15z" transform="translate(-23.15)" fill="#04aac7"/></svg>