<svg xmlns="http://www.w3.org/2000/svg" xmlns:xlink="http://www.w3.org/1999/xlink" version="1.1" id="Capa_1" x="0" y="0" viewBox="0 0 433.501 433.501" xml:space="preserve" width="512" height="512"><path d="M255.879 211.621h-11.763v-26.598c0-27.911-22.707-50.617-50.617-50.617s-50.617 22.707-50.617 50.617v26.598h-11.761a7.5 7.5 0 00-7.5 7.5v110.575a7.5 7.5 0 007.5 7.5h124.758a7.5 7.5 0 007.5-7.5V219.121a7.5 7.5 0 00-7.5-7.5zm-97.997-26.597c0-19.639 15.978-35.617 35.617-35.617s35.617 15.978 35.617 35.617v26.598h-71.234v-26.598zm90.497 137.173H138.621v-95.575h109.758v95.575z" fill="#00a8bc"/><path d="M186 284.143v18.22a7.5 7.5 0 0015 0v-18.22c9.063-3.122 15.596-11.729 15.596-21.839 0-12.735-10.361-23.096-23.096-23.096s-23.095 10.361-23.095 23.096c0 10.11 6.532 18.718 15.595 21.839zm7.5-29.934c4.464 0 8.096 3.632 8.096 8.096s-3.632 8.096-8.096 8.096-8.095-3.632-8.095-8.096 3.631-8.096 8.095-8.096z" fill="#00a8bc"/><path d="M429.073 148.087a20.462 20.462 0 00-16.159-7.836H387v-26.969c0-10.494-8.538-19.031-19.031-19.031H186.86a2.961 2.961 0 01-2.782-1.959l-7.784-21.783c-2.619-7.332-9.61-12.257-17.396-12.257H68.102c-7.785 0-14.776 4.926-17.396 12.257l-7.785 21.784a2.96 2.96 0 01-2.781 1.959H19.031C8.538 94.25 0 102.788 0 113.282V356.22c0 10.494 8.538 19.031 19.031 19.031h348.938c10.115 0 18.388-7.938 18.974-17.908l45.982-191.713a20.465 20.465 0 00-3.852-17.543zM372 356.219a4.036 4.036 0 01-4.031 4.031H19.031A4.036 4.036 0 0115 356.219V113.282a4.036 4.036 0 014.031-4.031H40.14c7.566 0 14.36-4.787 16.906-11.912l7.785-21.784a3.481 3.481 0 013.271-2.304h90.796c1.464 0 2.778.926 3.271 2.305l7.784 21.784c2.547 7.125 9.341 11.911 16.907 11.911h181.109a4.036 4.036 0 014.031 4.031v242.937zm46.339-194.088L387 292.793V155.25h25.914c2.354 0 3.755 1.331 4.381 2.125.625.793 1.593 2.466 1.044 4.756z" fill="#04aac7"/></svg>