<svg viewBox="0 0 48 48" xmlns="http://www.w3.org/2000/svg"><path d="M23.84 0C10.695 0 .001 10.694.001 23.838c0 13.145 10.694 23.838 23.839 23.838 13.145 0 23.838-10.694 23.838-23.838C47.678 10.693 36.985 0 23.84 0M12.131 42.879c.843-.346 1.89-.371 3.466-.371h2.247c.244 0 .473-.12.61-.322l2.581-3.785a.725.725 0 00.116-.498c.85.42 1.75.668 2.68.668.952 0 1.873-.261 2.741-.701a.728.728 0 00.122.538l2.643 3.784a.732.732 0 00.605.316h2.694c1.443 0 2.281.018 2.969.336A22.219 22.219 0 0123.841 46.2a22.22 22.22 0 01-11.709-3.321m19.223-25.11c.839 2.898 1.558 8-.083 9.361a.736.736 0 00-.267.569c0 4.144-3.378 9.399-7.173 9.399-3.796 0-7.173-5.256-7.173-9.399a.742.742 0 00-.062-.297c-2.169-4.94-.335-9.511-.316-9.556a.744.744 0 00.056-.283c0-2.455.442-4.333 5.999-4.333a.73.73 0 00.39-.112c1.589-.986 3.1-1.486 4.49-1.486 1.567 0 2.878.649 3.692 1.827a4.159 4.159 0 01.467 3.841.746.746 0 00-.018.467m5.598 24.17c-1.224-.91-2.546-.905-4.321-.905h-2.305l-2.423-3.468a.715.715 0 00-.377-.266c2.8-1.955 4.827-5.837 4.948-9.277 2.363-2.479.772-8.944.363-10.435a5.642 5.642 0 00-.718-4.968c-1.081-1.566-2.869-2.464-4.906-2.464-1.614 0-3.325.537-5.089 1.597-6.28.058-7.237 2.737-7.266 5.668-.326.87-1.821 5.403.323 10.432.06 3.491 2.118 7.48 4.976 9.461a.722.722 0 00-.343.257l-2.361 3.462h-1.857c-1.924 0-3.483.009-4.844.922-5.613-4.067-9.274-10.669-9.274-18.11 0-12.331 10.03-22.362 22.362-22.362 12.33 0 22.361 10.03 22.361 22.362 0 7.435-3.651 14.03-9.249 18.1" fill="#fff" fill-rule="evenodd"/></svg>